<?xml version="1.0" standalone="no"?>
<!DOCTYPE svg PUBLIC "-//W3C//DTD SVG 20010904//EN"
 "http://www.w3.org/TR/2001/REC-SVG-20010904/DTD/svg10.dtd">
<svg version="1.0" xmlns="http://www.w3.org/2000/svg"
 width="2022.000000pt" height="2022.000000pt" viewBox="0 0 2022.000000 2022.000000"
 preserveAspectRatio="xMidYMid meet">

<g transform="translate(0.000000,2022.000000) scale(0.100000,-0.100000)"
fill="#000000" stroke="none">
<path d="M9018 19502 c-4 -14 -25 -23 -80 -35 -79 -17 -205 -76 -273 -127 -22
-16 -56 -41 -76 -54 -62 -42 -204 -231 -224 -298 -4 -12 -15 -38 -26 -56 -10
-17 -26 -74 -36 -125 -17 -88 -18 -487 -18 -8667 0 -8180 1 -8579 18 -8667 10
-51 26 -108 36 -125 11 -18 22 -43 26 -55 19 -66 162 -257 223 -299 20 -13 55
-38 77 -54 70 -52 196 -110 274 -126 87 -18 91 -20 91 -40 0 -12 41 -14 269
-14 l268 0 12 57 c16 81 16 18565 0 18646 l-12 57 -272 0 c-255 0 -273 -1
-277 -18z"/>
<path d="M10512 19469 c-17 -73 -17 -18585 0 -18658 l11 -51 269 0 c227 0 268
2 268 14 0 20 4 22 93 40 122 25 304 129 397 226 117 122 210 294 238 440 14
73 16 197 19 869 2 586 6 788 15 798 7 9 23 13 42 10 75 -11 156 -29 216 -47
36 -11 99 -24 140 -30 41 -6 104 -19 140 -30 36 -10 105 -24 153 -30 49 -6
125 -19 170 -30 45 -10 118 -22 162 -25 44 -4 127 -16 184 -26 57 -10 190 -26
295 -34 105 -8 261 -23 346 -32 222 -25 1135 -24 1347 1 78 9 231 23 340 31
109 8 232 21 273 29 41 9 135 22 208 30 72 8 176 24 230 35 53 11 133 27 177
35 273 51 399 79 555 123 30 8 94 24 142 34 48 10 102 25 122 33 19 8 60 20
93 26 32 7 83 22 113 35 30 12 74 26 97 30 24 4 60 15 81 25 20 10 55 21 77
25 22 4 63 17 90 30 28 12 71 27 97 33 26 7 62 20 80 31 18 10 55 24 81 30 27
7 59 19 72 27 13 9 45 22 72 29 56 16 157 56 228 91 28 13 55 24 60 24 6 0 37
13 70 29 33 17 92 45 130 62 39 17 82 37 97 45 14 8 33 14 42 14 22 0 21 -56
-3 -100 -10 -19 -22 -51 -26 -70 -4 -19 -18 -58 -30 -86 -13 -28 -29 -71 -35
-95 -7 -24 -20 -60 -30 -79 -9 -19 -22 -57 -29 -83 -6 -27 -18 -59 -26 -70 -7
-12 -20 -47 -28 -77 -14 -52 -25 -82 -78 -212 -36 -88 -62 -189 -66 -258 -12
-173 95 -345 265 -427 70 -34 76 -35 170 -31 61 2 110 9 132 19 19 9 50 23 69
30 49 18 172 145 195 199 10 25 27 63 36 85 10 23 23 61 30 85 7 25 20 61 30
80 10 19 21 51 25 70 4 19 15 53 25 75 11 22 28 67 39 100 11 33 34 98 51 145
18 47 41 112 52 145 11 33 31 85 44 116 13 31 24 63 24 70 0 8 11 37 23 64 13
28 29 73 36 100 7 28 19 60 26 72 8 11 20 43 26 70 7 26 23 69 35 95 13 26 24
54 24 63 0 9 14 48 30 87 17 38 30 78 30 87 0 9 9 35 21 56 11 22 27 64 34 94
8 30 23 71 33 90 10 20 24 58 31 85 7 27 19 63 28 80 57 109 54 330 -5 414
-12 16 -22 33 -22 37 0 13 -78 96 -118 125 -44 32 -132 70 -240 105 -40 13
-78 27 -85 33 -6 5 -37 17 -67 25 -30 8 -79 24 -107 36 -133 53 -161 64 -213
78 -30 8 -65 21 -77 28 -11 8 -43 20 -70 26 -26 7 -61 18 -76 26 -28 14 -101
41 -227 83 -36 12 -81 30 -100 40 -19 10 -61 23 -92 30 -32 6 -60 15 -63 20
-3 6 -44 21 -90 35 -47 14 -87 30 -90 35 -3 4 -29 14 -57 20 -29 7 -69 21 -88
30 -19 10 -55 23 -80 30 -25 6 -63 19 -85 30 -23 10 -61 23 -85 30 -25 7 -61
20 -80 30 -19 10 -73 25 -121 34 -77 16 -93 16 -170 3 -49 -9 -101 -25 -123
-39 -65 -39 -167 -140 -194 -193 -39 -73 -43 -90 -43 -197 0 -92 2 -101 38
-175 66 -135 188 -231 347 -274 22 -6 57 -19 76 -29 19 -10 51 -21 70 -25 19
-4 58 -17 85 -30 28 -12 72 -27 99 -34 27 -7 66 -21 87 -31 21 -11 44 -20 51
-20 7 0 40 -12 73 -26 33 -14 77 -30 97 -35 21 -5 62 -20 92 -34 30 -14 62
-25 71 -25 29 0 110 -40 123 -61 18 -28 3 -44 -56 -59 -26 -6 -54 -17 -62 -24
-8 -8 -33 -19 -55 -26 -22 -7 -51 -20 -65 -30 -14 -9 -52 -27 -85 -39 -162
-62 -187 -72 -208 -85 -12 -8 -38 -17 -57 -21 -19 -4 -57 -18 -85 -31 -27 -12
-70 -29 -95 -37 -85 -28 -145 -49 -195 -70 -27 -11 -79 -28 -115 -38 -36 -10
-92 -27 -124 -38 -33 -12 -67 -21 -77 -21 -11 0 -47 -11 -81 -24 -61 -23 -84
-30 -273 -76 -49 -12 -128 -32 -175 -45 -115 -31 -271 -65 -350 -77 -36 -5
-117 -20 -180 -33 -63 -13 -162 -29 -220 -35 -58 -6 -136 -18 -173 -26 -38 -8
-153 -21 -258 -29 -104 -9 -260 -23 -346 -31 -212 -21 -749 -29 -993 -15 -280
16 -734 57 -880 80 -69 11 -156 24 -195 29 -102 14 -348 60 -435 82 -41 10
-109 24 -150 30 -41 6 -100 19 -130 30 -30 10 -75 22 -100 25 -68 11 -233 64
-242 78 -4 6 -8 1169 -8 2584 l0 2572 21 15 c19 13 27 12 83 -9 33 -12 84 -26
111 -29 28 -4 91 -18 140 -31 50 -13 113 -26 140 -30 28 -4 83 -15 124 -26 41
-10 113 -23 160 -29 47 -6 127 -19 177 -30 49 -11 137 -24 195 -29 57 -6 165
-19 239 -30 74 -11 182 -22 240 -26 58 -3 202 -12 320 -20 459 -30 788 -28
1255 5 77 6 205 15 285 20 80 5 184 17 231 25 48 8 130 19 184 24 119 12 373
54 520 87 61 13 144 29 185 34 41 6 104 19 140 29 36 11 83 22 105 25 22 4 76
17 120 31 44 13 109 30 145 39 103 23 190 47 265 72 39 12 92 28 119 34 27 6
67 19 90 29 22 10 66 24 96 31 30 7 67 19 81 26 14 7 48 18 75 25 27 6 72 22
99 35 28 12 70 29 95 38 79 26 174 62 220 84 25 12 52 22 60 22 8 0 42 14 75
30 33 17 67 30 76 30 9 0 27 8 40 19 13 10 35 21 49 25 25 8 112 47 206 94 85
42 100 21 63 -84 -12 -32 -30 -86 -41 -119 -12 -33 -31 -83 -44 -112 -13 -28
-24 -60 -24 -70 0 -10 -9 -37 -21 -58 -11 -22 -26 -63 -34 -91 -7 -29 -20 -65
-28 -80 -8 -16 -20 -49 -27 -74 -6 -25 -22 -67 -34 -95 -13 -27 -27 -66 -31
-85 -4 -19 -18 -57 -30 -85 -80 -176 -78 -171 -77 -250 0 -65 5 -85 32 -138
40 -76 51 -89 119 -140 62 -46 179 -87 247 -87 131 0 274 67 357 167 40 49
107 178 107 207 0 10 14 48 30 86 17 38 30 75 30 84 0 9 11 39 25 68 14 28 25
59 25 67 0 9 12 43 26 76 14 33 32 85 41 115 8 30 19 60 24 67 6 6 21 44 34
85 45 136 73 216 88 245 8 15 18 44 22 63 4 19 14 49 22 66 17 38 66 172 95
263 11 36 26 74 33 85 8 12 20 46 28 76 8 30 25 79 36 108 12 28 30 76 42 105
11 28 27 76 36 106 8 30 20 63 28 75 22 36 70 219 68 266 -2 71 -42 189 -84
246 -20 28 -59 70 -85 93 -50 44 -177 111 -210 111 -10 0 -42 11 -70 24 -28
13 -66 27 -85 31 -19 4 -56 18 -84 30 -27 13 -70 30 -95 38 -102 34 -148 50
-195 69 -27 11 -72 27 -99 34 -27 7 -67 22 -90 32 -23 11 -68 29 -101 40 -142
48 -163 55 -220 77 -33 13 -82 31 -110 40 -128 43 -188 66 -213 79 -15 9 -52
22 -82 29 -30 8 -77 24 -105 35 -137 55 -164 65 -214 79 -30 8 -63 20 -75 28
-36 22 -219 70 -266 69 -25 -1 -79 -11 -120 -24 -126 -39 -225 -127 -286 -253
-30 -64 -34 -81 -34 -154 0 -101 32 -190 98 -273 48 -61 143 -137 182 -147 14
-3 48 -16 75 -28 28 -13 66 -26 85 -30 19 -4 56 -18 82 -31 26 -13 54 -24 63
-24 9 0 46 -13 83 -28 37 -16 83 -32 102 -35 19 -4 57 -18 84 -32 27 -14 58
-25 69 -25 10 0 49 -13 87 -30 38 -16 76 -30 85 -30 8 0 37 -11 63 -24 26 -13
66 -27 90 -31 23 -4 49 -13 57 -22 23 -23 -5 -68 -52 -83 -39 -12 -131 -53
-216 -96 -26 -13 -53 -24 -60 -24 -7 0 -39 -13 -72 -30 -33 -16 -66 -30 -74
-30 -8 0 -44 -13 -80 -29 -119 -51 -175 -73 -224 -87 -27 -7 -63 -21 -80 -30
-18 -9 -58 -22 -90 -30 -32 -8 -72 -21 -88 -30 -17 -8 -64 -24 -106 -35 -42
-10 -81 -23 -87 -28 -6 -5 -39 -14 -73 -21 -34 -6 -79 -18 -100 -27 -40 -17
-178 -54 -298 -79 -38 -9 -108 -26 -155 -39 -47 -13 -107 -27 -135 -31 -27 -3
-86 -15 -130 -26 -44 -10 -134 -28 -200 -38 -66 -10 -160 -26 -210 -34 -190
-32 -487 -67 -655 -76 -96 -6 -233 -15 -305 -21 -166 -14 -766 -14 -910 0 -60
6 -198 15 -305 21 -107 5 -233 17 -280 25 -47 8 -150 22 -229 30 -80 9 -170
22 -200 30 -31 8 -99 19 -151 26 -52 6 -135 21 -185 34 -49 13 -117 27 -150
31 -33 3 -96 17 -139 30 -44 13 -87 24 -97 24 -9 0 -60 13 -114 30 -54 16
-112 30 -130 30 -18 0 -43 9 -56 19 l-24 19 -3 2572 c-2 2017 0 2576 10 2588
15 17 90 11 159 -13 40 -15 127 -35 349 -81 182 -38 319 -63 365 -69 28 -3
118 -16 200 -30 83 -13 220 -32 305 -40 85 -9 184 -20 220 -25 36 -5 220 -17
410 -26 356 -16 809 -14 1185 6 183 10 568 50 730 76 55 9 163 24 240 34 77
11 163 26 190 34 28 8 93 22 145 30 116 18 271 51 365 77 39 11 108 28 155 39
47 10 104 25 127 33 23 9 63 19 90 23 26 3 74 17 105 30 32 13 64 24 72 24 13
0 192 54 271 82 17 6 62 20 100 32 39 12 79 27 90 33 11 6 47 19 80 28 33 9
69 23 81 30 11 7 49 22 85 33 71 22 148 53 224 88 28 13 57 24 65 24 8 0 34
11 57 24 23 13 59 30 80 36 21 7 49 21 63 30 14 10 42 22 62 28 21 6 50 19 65
30 34 23 84 34 103 22 13 -8 13 -14 1 -42 -7 -18 -17 -49 -22 -69 -4 -19 -20
-60 -34 -90 -13 -30 -25 -62 -25 -72 0 -10 -11 -42 -24 -70 -13 -29 -27 -68
-31 -87 -4 -19 -18 -57 -30 -85 -23 -51 -43 -105 -77 -210 -11 -33 -27 -78
-37 -100 -34 -75 -73 -200 -81 -260 -16 -114 28 -244 115 -343 110 -124 240
-164 419 -131 137 25 292 171 332 314 6 22 21 63 32 90 20 49 41 108 70 195 8
25 25 68 37 95 12 28 26 66 30 85 4 19 18 58 31 87 13 28 24 59 24 68 0 9 14
47 30 85 17 38 30 76 30 85 0 9 11 40 24 68 13 29 33 79 44 112 44 132 55 162
77 215 13 30 26 70 30 89 4 18 18 55 31 81 13 26 24 55 24 65 0 9 14 47 30 85
17 38 30 76 30 85 0 9 11 40 25 69 14 29 28 68 31 87 4 19 17 54 29 79 12 25
25 59 29 75 4 17 18 58 32 92 19 50 24 79 24 155 -1 83 -4 101 -33 165 -41 92
-111 173 -190 219 -60 35 -87 46 -227 94 -36 12 -87 32 -115 45 -27 12 -68 26
-90 29 -22 4 -49 13 -61 21 -11 7 -53 23 -94 35 -41 12 -83 28 -94 35 -12 7
-41 19 -66 25 -25 7 -61 20 -80 30 -19 9 -53 21 -74 24 -22 4 -60 18 -85 30
-26 13 -62 26 -81 30 -19 3 -57 17 -84 31 -27 14 -59 25 -71 25 -12 0 -42 11
-67 24 -25 13 -60 27 -79 31 -19 4 -56 18 -84 30 -27 13 -66 26 -85 30 -19 4
-60 17 -90 30 -53 22 -82 33 -215 77 -33 11 -83 31 -110 44 -28 13 -58 24 -68
24 -10 0 -46 12 -80 27 -52 23 -76 27 -152 27 -83 0 -96 -3 -165 -36 -133 -63
-226 -165 -261 -286 -24 -83 -24 -128 0 -219 42 -162 154 -271 344 -337 26 -9
68 -23 95 -32 26 -9 72 -27 102 -40 30 -12 75 -29 100 -37 110 -36 179 -61
231 -83 31 -13 65 -24 76 -24 10 0 37 -9 58 -20 22 -12 65 -28 95 -37 30 -8
69 -22 85 -31 17 -8 52 -20 80 -26 72 -16 70 -36 -9 -80 -35 -20 -70 -36 -77
-36 -6 0 -42 -14 -78 -31 -144 -68 -167 -78 -201 -89 -19 -5 -57 -21 -84 -35
-27 -14 -57 -25 -65 -25 -9 0 -36 -11 -61 -24 -25 -13 -58 -26 -75 -30 -16 -4
-52 -18 -80 -30 -27 -13 -68 -27 -89 -30 -21 -4 -48 -14 -60 -21 -12 -8 -52
-23 -91 -34 -66 -19 -122 -37 -260 -83 -33 -11 -85 -25 -115 -32 -31 -7 -85
-22 -120 -34 -36 -12 -92 -28 -125 -35 -33 -8 -89 -22 -125 -30 -117 -30 -194
-47 -275 -63 -44 -8 -128 -26 -187 -40 -59 -13 -136 -27 -170 -30 -35 -3 -119
-16 -188 -29 -69 -13 -183 -29 -255 -35 -71 -6 -170 -18 -220 -25 -141 -23
-485 -37 -915 -37 -443 0 -747 13 -949 42 -75 10 -179 22 -231 25 -52 4 -144
18 -205 30 -60 13 -143 26 -182 30 -40 3 -117 17 -170 30 -54 14 -110 25 -124
25 -14 0 -79 13 -145 30 -65 16 -127 30 -136 30 -10 0 -50 11 -90 24 -40 14
-106 30 -147 36 -54 9 -80 19 -102 39 l-29 26 -3 1215 c-3 1329 -3 1323 -61
1439 -14 28 -26 55 -26 60 0 10 -49 87 -107 169 -42 59 -133 143 -190 178
-104 62 -203 106 -272 120 -87 18 -91 20 -91 40 0 12 -41 14 -268 14 l-269 0
-11 -51z"/>
<path d="M5845 17754 c-176 -37 -276 -107 -347 -243 -32 -63 -33 -67 -33 -190
l0 -126 42 -76 c73 -129 161 -194 300 -218 86 -14 98 -14 174 2 57 12 98 28
135 52 266 177 272 540 11 725 -74 52 -211 88 -282 74z"/>
<path d="M4000 17510 c-133 -53 -245 -176 -268 -294 -45 -227 37 -403 236
-506 61 -32 69 -33 177 -33 112 -1 114 0 187 37 123 64 193 146 227 267 26 94
27 155 1 243 -51 180 -209 303 -400 312 -77 4 -92 1 -160 -26z"/>
<path d="M7477 17509 c-103 -42 -189 -120 -237 -215 -34 -68 -35 -71 -35 -194
l0 -125 37 -65 c71 -126 190 -213 312 -231 160 -22 290 22 393 135 65 71 97
140 116 252 9 56 7 70 -17 147 -33 103 -70 162 -139 221 -76 64 -163 97 -267
102 -78 4 -92 2 -163 -27z"/>
<path d="M2375 16882 c-176 -15 -340 -145 -379 -298 -26 -105 -28 -137 -11
-219 34 -167 153 -293 308 -329 198 -46 366 21 485 192 26 37 62 168 62 227 0
58 -34 177 -61 216 -65 94 -158 169 -234 189 -64 17 -132 26 -170 22z"/>
<path d="M535 15991 c-131 -37 -249 -158 -281 -286 -9 -37 -23 -69 -30 -72
-19 -7 -19 -103 -1 -103 8 0 20 -28 30 -70 33 -136 147 -252 288 -291 165 -46
327 -3 440 118 57 60 88 124 105 214 15 76 15 90 -1 168 -23 119 -80 201 -194
280 -83 58 -238 76 -356 42z"/>
<path d="M5794 11650 c-60 -9 -165 -65 -211 -112 -51 -53 -104 -148 -115 -208
-17 -90 -4 -223 28 -287 73 -143 206 -232 372 -249 45 -5 73 -1 137 20 147 49
244 142 291 280 32 94 32 178 -2 278 -21 65 -36 88 -91 147 -35 39 -69 71 -74
71 -5 0 -26 11 -47 24 -61 40 -169 53 -288 36z"/>
<path d="M4057 11434 c-3 -3 -25 -10 -49 -15 -88 -20 -194 -112 -248 -215 -58
-112 -52 -305 12 -408 68 -109 155 -176 263 -201 194 -45 369 24 482 190 29
43 63 163 63 224 0 58 -31 181 -56 218 -59 91 -163 172 -251 196 -60 16 -203
24 -216 11z"/>
<path d="M7495 11421 c-92 -27 -198 -109 -238 -186 -51 -96 -51 -97 -52 -225
l0 -125 39 -70 c37 -66 110 -155 129 -155 4 0 23 -11 41 -25 35 -27 149 -55
221 -55 173 0 339 120 401 288 38 103 38 180 0 283 -81 222 -309 336 -541 270z"/>
<path d="M2313 10780 c-57 -9 -151 -57 -201 -104 -114 -105 -159 -259 -124
-417 15 -67 28 -98 60 -141 62 -84 131 -136 223 -169 102 -36 160 -37 263 -3
139 47 252 163 287 295 24 94 24 137 -1 232 -44 174 -196 300 -375 311 -44 2
-103 1 -132 -4z"/>
<path d="M573 9910 c-144 -22 -284 -157 -321 -309 -10 -41 -22 -71 -29 -71 -9
0 -13 -17 -13 -50 0 -36 4 -50 14 -50 9 0 20 -25 31 -68 31 -127 141 -237 285
-286 69 -24 93 -28 149 -23 253 21 440 252 401 496 -15 92 -22 112 -65 177
-75 113 -189 180 -320 188 -44 2 -103 1 -132 -4z"/>
<path d="M5785 5561 c-145 -40 -290 -186 -314 -317 -25 -132 -8 -247 48 -332
52 -78 116 -135 198 -174 63 -31 75 -33 169 -33 91 0 108 3 165 30 79 36 157
100 197 161 41 61 75 175 74 244 -1 55 -27 151 -56 208 -34 65 -113 138 -193
177 -69 33 -88 38 -168 41 -49 2 -103 -1 -120 -5z"/>
<path d="M4059 5341 c-144 -20 -302 -169 -329 -311 -33 -176 11 -327 128 -432
58 -52 78 -63 165 -94 65 -22 91 -26 145 -22 79 6 172 42 237 91 61 47 133
141 146 191 5 23 14 54 19 70 24 73 -4 239 -53 310 -32 46 -120 136 -133 136
-6 0 -22 8 -35 19 -50 38 -179 57 -290 42z"/>
<path d="M7537 5339 c-67 -10 -164 -62 -218 -118 -20 -20 -53 -68 -75 -106
l-39 -70 0 -125 c0 -123 1 -126 35 -194 70 -137 217 -232 375 -244 121 -8 281
70 359 177 127 172 116 390 -25 545 -75 81 -147 123 -236 136 -77 11 -95 11
-176 -1z"/>
<path d="M2315 4694 c-43 -11 -152 -69 -191 -102 -69 -57 -119 -144 -139 -243
-17 -82 -17 -90 0 -170 30 -141 105 -236 245 -309 62 -33 69 -34 175 -35 106
0 113 2 175 34 134 70 208 157 241 284 24 91 23 133 0 225 -33 126 -109 215
-241 281 -56 29 -77 34 -155 37 -49 1 -99 1 -110 -2z"/>
<path d="M575 3824 c-41 -10 -151 -68 -192 -101 -23 -19 -51 -49 -62 -66 -12
-18 -29 -44 -39 -58 -9 -15 -23 -54 -31 -88 -9 -39 -19 -61 -27 -61 -19 0 -19
-89 0 -104 8 -6 21 -40 30 -75 28 -114 106 -205 236 -272 62 -32 70 -34 175
-34 105 0 113 2 175 34 143 74 220 172 247 315 16 79 15 89 -2 170 -29 140
-110 240 -250 307 -60 29 -82 34 -155 35 -47 2 -94 0 -105 -2z"/>
</g>
</svg>
