<?xml version="1.0" standalone="no"?>
<!DOCTYPE svg PUBLIC "-//W3C//DTD SVG 20010904//EN"
 "http://www.w3.org/TR/2001/REC-SVG-20010904/DTD/svg10.dtd">
<svg version="1.0" xmlns="http://www.w3.org/2000/svg"
 width="123.000000pt" height="123.000000pt" viewBox="0 0 123.000000 123.000000"
 preserveAspectRatio="xMidYMid meet">

<g transform="translate(0.000000,123.000000) scale(0.100000,-0.100000)"
fill="#000000" stroke="none">
<path d="M520 1204 c-221 -43 -400 -198 -471 -409 -31 -92 -34 -261 -5 -345
72 -214 222 -357 432 -410 302 -77 604 97 710 410 26 77 26 253 0 330 -37 108
-77 173 -155 251 -116 116 -233 168 -391 174 -52 2 -106 1 -120 -1z m239 -133
c110 -34 214 -119 273 -221 85 -146 77 -346 -20 -496 -50 -77 -109 -128 -201
-172 -66 -32 -84 -36 -175 -40 -85 -3 -111 -1 -164 17 -150 51 -257 155 -308
300 -29 81 -32 209 -8 292 43 146 167 273 312 320 78 25 211 25 291 0z"/>
<path d="M568 939 c-16 -9 -18 -29 -18 -194 0 -154 3 -186 16 -199 8 -9 21
-16 28 -16 21 0 301 137 315 154 20 24 -1 66 -33 66 -13 0 -67 -20 -120 -45
-54 -25 -102 -45 -107 -45 -5 0 -9 58 -9 133 0 135 -6 157 -39 157 -9 0 -24
-5 -33 -11z"/>
</g>
</svg>
