<?xml version="1.0" standalone="no"?>
<!DOCTYPE svg PUBLIC "-//W3C//DTD SVG 20010904//EN"
 "http://www.w3.org/TR/2001/REC-SVG-20010904/DTD/svg10.dtd">
<svg version="1.0" xmlns="http://www.w3.org/2000/svg"
 width="2022.000000pt" height="2022.000000pt" viewBox="0 0 2022.000000 2022.000000"
 preserveAspectRatio="xMidYMid meet">

<g transform="translate(0.000000,2022.000000) scale(0.100000,-0.100000)"
fill="#000000" stroke="none">
<path d="M8709 19330 c-22 -12 -49 -41 -73 -79 -20 -34 -41 -61 -45 -61 -4 0
-13 -11 -19 -25 -6 -14 -31 -46 -54 -71 -24 -26 -56 -66 -73 -89 -16 -24 -58
-77 -92 -118 -34 -41 -72 -92 -86 -114 -13 -21 -32 -45 -41 -53 -10 -7 -32
-34 -49 -59 -17 -25 -34 -48 -37 -51 -3 -3 -61 -75 -128 -160 -67 -85 -140
-177 -162 -205 -22 -27 -53 -68 -70 -90 -17 -22 -50 -65 -75 -95 -25 -30 -66
-82 -92 -115 -26 -33 -67 -86 -92 -118 -25 -32 -64 -82 -86 -111 -44 -58 -139
-179 -209 -266 -25 -30 -84 -107 -133 -170 -48 -63 -95 -124 -104 -135 -10
-11 -45 -56 -80 -100 -130 -166 -184 -232 -241 -292 -81 -85 -77 -117 17 -160
37 -17 88 -18 662 -20 577 -1 624 -3 652 -19 17 -10 33 -25 36 -33 3 -9 6
-384 6 -834 0 -602 -3 -829 -12 -856 -22 -67 -80 -139 -139 -172 -30 -17 -64
-39 -75 -49 -20 -18 -193 -137 -287 -197 -28 -17 -66 -44 -86 -60 -19 -15 -60
-43 -91 -62 -31 -18 -82 -53 -113 -77 -31 -23 -70 -50 -86 -58 -16 -8 -44 -28
-62 -43 -19 -15 -53 -39 -76 -53 -24 -14 -71 -45 -106 -70 -35 -25 -91 -63
-125 -84 -35 -20 -63 -41 -63 -45 0 -4 -22 -20 -50 -35 -27 -15 -71 -44 -97
-64 -26 -21 -77 -55 -111 -77 -35 -22 -80 -54 -100 -71 -21 -17 -57 -41 -82
-53 -25 -13 -58 -34 -75 -48 -45 -36 -247 -175 -286 -197 -19 -10 -47 -31 -64
-46 -16 -15 -46 -36 -65 -45 -33 -17 -169 -112 -180 -126 -3 -4 -25 -17 -50
-30 -25 -13 -52 -32 -61 -44 -10 -11 -34 -29 -55 -40 -22 -10 -68 -40 -104
-66 -36 -25 -85 -59 -110 -75 -25 -15 -63 -42 -86 -60 -22 -18 -63 -45 -90
-59 -27 -15 -60 -37 -74 -50 -14 -12 -65 -48 -115 -81 -49 -32 -101 -69 -115
-82 -14 -13 -43 -33 -65 -44 -22 -12 -58 -36 -79 -54 -22 -19 -45 -34 -51 -34
-7 0 -42 -22 -78 -50 -36 -27 -70 -50 -75 -50 -6 0 -12 -6 -15 -13 -2 -7 -29
-26 -58 -42 -30 -16 -60 -35 -68 -43 -8 -8 -51 -38 -95 -67 -136 -89 -230
-153 -260 -177 -16 -13 -52 -36 -80 -53 -28 -16 -72 -45 -96 -63 -140 -103
-270 -192 -279 -192 -6 0 -28 -15 -48 -34 -21 -19 -65 -50 -98 -70 -83 -51
-243 -159 -285 -194 -19 -16 -51 -37 -70 -47 -19 -10 -53 -32 -74 -49 -22 -17
-72 -51 -112 -76 -39 -25 -86 -58 -105 -74 -19 -15 -57 -42 -86 -59 -70 -43
-261 -174 -297 -204 -15 -13 -42 -30 -60 -37 -17 -7 -43 -25 -59 -39 -15 -15
-49 -39 -75 -54 -26 -15 -86 -56 -133 -90 -48 -35 -91 -63 -96 -63 -6 0 -30
-17 -54 -39 -24 -21 -59 -46 -78 -56 -19 -9 -56 -34 -82 -54 -26 -20 -59 -44
-74 -54 -48 -34 -60 -62 -45 -110 6 -22 26 -59 44 -82 46 -59 73 -96 100 -135
13 -19 34 -46 46 -60 12 -14 39 -54 60 -90 21 -36 47 -73 57 -82 10 -9 38 -46
63 -83 25 -37 60 -85 78 -108 18 -22 40 -54 49 -71 9 -17 28 -45 44 -63 15
-18 40 -53 54 -78 31 -52 68 -75 122 -75 47 0 90 22 218 114 55 39 121 84 147
101 26 16 73 48 105 71 32 22 110 76 173 119 63 43 126 86 140 97 14 10 72 50
130 88 136 90 314 213 365 251 56 41 247 169 298 199 24 14 71 49 105 78 35
28 70 53 78 53 30 3 40 2 66 -5 15 -5 37 -23 48 -41 l20 -33 0 -4806 c0 -3327
3 -4813 10 -4826 14 -26 52 -45 118 -59 39 -8 1788 -11 6554 -11 l6502 0 43
21 c24 12 51 31 59 44 12 19 14 617 14 4773 0 4357 1 4755 16 4792 11 27 24
42 40 46 50 13 149 -22 204 -70 14 -13 45 -35 70 -50 45 -26 134 -87 158 -107
22 -18 163 -113 208 -139 23 -14 50 -32 61 -41 17 -15 102 -73 363 -250 63
-43 120 -82 125 -87 17 -14 252 -175 303 -207 26 -17 73 -49 104 -73 84 -62
141 -60 206 9 32 35 122 160 122 171 0 4 17 27 38 51 20 23 60 76 87 117 27
41 60 86 73 100 13 14 37 49 54 78 16 29 38 58 48 65 9 6 25 28 35 47 17 34
72 109 87 120 16 12 78 143 78 166 0 40 -43 75 -290 243 -80 55 -170 117 -201
140 -32 23 -62 41 -68 41 -5 0 -25 13 -43 29 -18 15 -58 45 -88 65 -119 78
-290 196 -482 329 -64 45 -129 90 -145 100 -71 44 -132 85 -183 122 -59 43
-195 137 -284 195 -93 61 -189 127 -261 179 -38 27 -92 64 -120 81 -27 17 -66
42 -85 56 -44 33 -197 138 -266 184 -53 35 -146 99 -263 181 -34 24 -85 58
-111 74 -26 17 -66 44 -88 60 -64 47 -327 227 -385 262 -28 18 -70 47 -92 63
-41 31 -194 136 -273 187 -24 15 -58 40 -75 54 -18 14 -53 37 -79 52 -26 15
-53 33 -60 40 -7 7 -49 37 -93 66 -44 30 -93 63 -110 75 -60 42 -291 198 -330
223 -22 14 -42 29 -45 32 -3 4 -34 26 -70 49 -36 22 -78 51 -94 64 -17 13 -51
37 -77 53 -26 17 -76 50 -110 75 -35 25 -89 60 -119 78 -30 18 -57 37 -60 41
-3 4 -38 30 -79 57 -41 27 -93 63 -117 79 -23 17 -91 63 -151 102 -98 66 -181
123 -368 253 -36 25 -84 57 -107 72 -24 15 -95 64 -158 108 -63 45 -131 91
-150 104 -19 13 -48 31 -63 42 -16 10 -59 39 -97 64 -37 25 -125 86 -195 135
-70 50 -151 106 -181 125 -117 77 -148 98 -254 173 -60 42 -113 77 -119 77 -5
0 -33 19 -63 43 -29 23 -73 56 -97 72 -25 17 -82 55 -127 85 -45 30 -89 60
-97 65 -8 6 -54 37 -103 71 -49 33 -140 96 -202 140 -63 43 -135 93 -162 109
-42 26 -118 78 -300 204 -25 18 -72 49 -105 71 -33 22 -107 73 -165 114 -58
42 -128 90 -157 108 -181 114 -363 253 -385 293 -8 14 1 27 52 74 57 51 61 58
52 82 -6 14 -39 57 -74 95 -71 78 -186 221 -236 292 -18 26 -50 66 -72 89 -22
23 -40 46 -40 52 0 6 -21 35 -47 65 -54 60 -159 191 -216 269 -21 29 -51 66
-66 82 -16 17 -41 52 -56 78 -15 27 -34 51 -42 54 -7 3 -28 26 -45 52 -18 25
-61 82 -98 126 -36 44 -78 99 -93 122 -16 23 -35 44 -42 47 -7 2 -26 26 -41
53 -15 26 -46 69 -68 95 -53 60 -125 150 -204 255 -34 46 -66 83 -70 83 -5 0
-19 19 -32 43 -13 23 -44 65 -69 93 -25 28 -55 65 -66 82 -11 17 -65 86 -120
152 -55 67 -112 140 -128 163 -15 23 -42 57 -61 77 -18 19 -43 52 -55 72 -44
74 -134 99 -212 58z m1839 -2769 c47 -20 43 -52 -11 -88 -23 -15 -67 -47 -97
-71 -30 -24 -79 -58 -107 -75 -75 -46 -254 -168 -278 -190 -11 -10 -40 -29
-65 -42 -25 -13 -56 -34 -70 -47 -14 -13 -53 -41 -87 -61 -34 -21 -93 -62
-130 -90 -149 -116 -242 -144 -274 -85 -8 16 -11 118 -10 361 1 186 5 345 8
353 17 45 64 49 624 48 360 0 473 -3 497 -13z m245 -1560 c35 -16 96 -57 236
-158 13 -10 45 -31 71 -48 47 -30 138 -91 240 -163 30 -21 107 -73 170 -115
63 -42 126 -85 140 -94 13 -10 65 -46 115 -80 49 -35 103 -73 119 -85 16 -13
45 -32 66 -43 21 -11 50 -30 66 -43 41 -31 238 -169 305 -211 30 -20 86 -57
125 -83 38 -26 115 -79 170 -117 56 -37 119 -81 139 -97 21 -16 57 -40 81 -54
23 -14 69 -43 101 -66 32 -23 114 -79 183 -126 69 -47 185 -127 258 -179 72
-52 154 -107 181 -124 60 -37 164 -108 256 -174 39 -28 86 -59 106 -70 20 -11
51 -33 69 -48 18 -15 52 -39 76 -53 23 -14 107 -70 185 -125 79 -55 164 -113
190 -130 74 -48 119 -78 230 -157 57 -41 118 -83 135 -93 58 -37 176 -116 190
-128 8 -7 21 -18 29 -24 7 -7 17 -13 22 -13 4 0 19 -10 33 -21 25 -20 256
-178 314 -214 17 -11 53 -36 79 -55 49 -37 139 -99 221 -153 111 -73 156 -104
216 -147 34 -25 85 -59 113 -77 76 -48 105 -86 127 -163 14 -51 14 -9172 -1
-9224 -14 -49 -46 -81 -95 -95 -28 -8 -1556 -11 -5278 -11 l-5239 0 -42 25
c-28 16 -47 36 -54 57 -8 23 -11 1287 -11 4691 l0 4660 24 52 c21 46 78 105
101 105 4 0 26 15 49 33 23 19 88 65 146 104 58 38 128 85 155 103 28 18 59
41 70 51 11 9 34 25 52 36 18 10 71 45 118 78 47 33 109 76 138 95 30 19 80
53 113 74 32 22 77 53 99 70 21 17 46 36 55 41 64 40 181 119 345 233 61 43
146 101 190 129 44 29 98 65 119 80 21 15 56 39 77 53 20 14 81 55 133 93 53
37 99 67 103 67 5 0 19 10 33 21 24 19 110 79 215 149 28 18 64 45 80 60 50
45 104 73 128 66 12 -3 31 -20 42 -38 20 -33 20 -61 25 -3233 4 -2653 3 -3206
-8 -3237 -27 -74 18 -70 -767 -69 -467 1 -719 -2 -753 -9 -63 -14 -89 -42
-102 -109 -14 -73 -14 -3384 0 -3410 5 -11 25 -29 44 -40 l34 -21 2281 0
c2113 -1 2283 1 2306 16 14 9 30 25 36 35 11 22 12 3383 0 3445 -10 52 -16 61
-52 79 -26 14 -125 16 -793 15 -682 -2 -767 0 -794 14 -17 9 -36 25 -42 36
-14 26 -14 7430 0 7481 12 43 110 140 190 188 30 19 62 40 70 48 8 7 44 33 80
57 36 23 117 78 180 121 63 43 131 89 150 101 19 13 46 31 60 42 39 30 297
205 336 228 19 11 46 31 61 44 81 70 158 87 236 51z m-559 -9236 c82 -42 76
41 76 -967 1 -823 -1 -900 -16 -930 -9 -18 -26 -40 -38 -48 -57 -41 -31 -41
-1492 -40 -1314 0 -1406 1 -1460 18 -50 15 -62 24 -81 57 l-23 40 0 897 c0
617 3 904 11 921 6 12 20 29 32 37 60 37 82 38 1537 36 1394 -1 1416 -1 1454
-21z"/>
</g>
</svg>
