<?xml version="1.0" standalone="no"?>
<!DOCTYPE svg PUBLIC "-//W3C//DTD SVG 20010904//EN"
 "http://www.w3.org/TR/2001/REC-SVG-20010904/DTD/svg10.dtd">
<svg version="1.0" xmlns="http://www.w3.org/2000/svg"
 width="2022.000000pt" height="2022.000000pt" viewBox="0 0 2022.000000 2022.000000"
 preserveAspectRatio="xMidYMid meet">

<g transform="translate(0.000000,2022.000000) scale(0.100000,-0.100000)"
fill="#000000" stroke="none">
<path d="M10143 19214 c-23 -8 -61 -32 -85 -53 -24 -20 -86 -69 -139 -108 -52
-40 -102 -79 -109 -88 -7 -9 -34 -28 -59 -42 -25 -15 -64 -43 -87 -62 -22 -20
-72 -58 -110 -86 -38 -27 -85 -64 -104 -81 -19 -17 -60 -47 -90 -66 -30 -20
-64 -45 -74 -57 -11 -12 -36 -32 -55 -44 -35 -21 -221 -162 -326 -247 -27 -22
-71 -55 -97 -73 -75 -51 -276 -206 -284 -218 -3 -6 -32 -27 -63 -47 -31 -19
-74 -50 -96 -69 -49 -41 -229 -176 -293 -221 -26 -18 -60 -46 -77 -61 -16 -16
-55 -44 -85 -64 -30 -20 -64 -44 -75 -54 -48 -42 -122 -101 -150 -118 -16 -10
-44 -31 -61 -47 -17 -16 -58 -48 -92 -71 -77 -52 -244 -180 -294 -224 -21 -18
-57 -44 -80 -59 -24 -15 -59 -41 -79 -58 -20 -17 -64 -51 -99 -76 -35 -25 -95
-71 -134 -102 -39 -32 -76 -58 -81 -58 -6 0 -35 -22 -65 -50 -30 -27 -58 -50
-61 -50 -4 0 -64 -45 -134 -100 -70 -55 -130 -100 -134 -100 -4 0 -22 -15 -40
-32 -19 -18 -60 -51 -92 -73 -87 -60 -293 -218 -298 -228 -2 -5 -33 -28 -70
-53 -36 -24 -86 -60 -111 -80 -108 -85 -237 -182 -289 -217 -31 -22 -69 -51
-86 -66 -16 -16 -50 -42 -75 -59 -25 -18 -70 -52 -100 -77 -30 -25 -85 -65
-122 -89 -36 -25 -70 -51 -75 -59 -4 -7 -34 -31 -65 -53 -32 -21 -118 -86
-193 -144 -75 -58 -155 -119 -179 -136 -24 -17 -68 -51 -99 -75 -31 -24 -84
-64 -119 -89 -34 -25 -80 -61 -102 -81 -23 -20 -56 -44 -75 -54 -18 -9 -52
-33 -75 -54 -22 -21 -57 -48 -76 -61 -19 -13 -69 -51 -110 -85 -42 -34 -96
-75 -120 -90 -25 -15 -67 -48 -94 -72 -26 -23 -52 -43 -56 -43 -5 0 -37 -24
-73 -52 -35 -29 -92 -73 -127 -98 -35 -25 -82 -61 -104 -81 -23 -20 -61 -49
-86 -64 -25 -15 -64 -44 -86 -64 -46 -40 -181 -142 -279 -211 -35 -25 -77 -57
-92 -71 -15 -15 -38 -32 -50 -38 -12 -6 -72 -51 -132 -99 -61 -48 -127 -99
-148 -115 -21 -15 -58 -43 -83 -62 -157 -121 -238 -183 -269 -204 -20 -13 -49
-36 -64 -50 -15 -14 -57 -46 -92 -71 -97 -68 -256 -188 -295 -224 -19 -18 -58
-47 -86 -64 -27 -17 -61 -43 -75 -58 -13 -14 -37 -33 -53 -41 -26 -13 -61 -40
-180 -136 -22 -18 -53 -40 -70 -50 -17 -11 -47 -34 -66 -52 -19 -18 -51 -43
-71 -56 -56 -36 -305 -227 -319 -244 -7 -8 -36 -28 -65 -45 -82 -47 -133 -137
-114 -204 9 -32 148 -254 237 -376 21 -30 49 -75 61 -100 11 -25 35 -64 53
-87 18 -23 53 -75 78 -115 24 -40 60 -95 81 -123 20 -27 46 -71 58 -96 12 -26
48 -72 81 -103 47 -45 65 -56 92 -56 45 1 102 28 167 81 29 24 82 64 116 89
34 25 97 72 140 105 175 135 210 161 249 189 23 15 52 38 66 51 14 12 45 36
70 54 25 17 72 53 106 79 121 93 218 168 264 202 27 19 109 82 184 140 75 58
165 125 201 150 36 25 77 57 92 71 51 46 184 140 218 155 43 18 87 4 106 -34
12 -23 15 -883 19 -5667 4 -4556 7 -5644 18 -5662 7 -13 27 -31 45 -40 30 -17
365 -18 6892 -21 3773 -1 6874 0 6890 3 17 3 46 18 65 34 l35 29 5 5602 5
5602 24 19 c13 10 38 19 56 19 46 0 140 -51 209 -112 33 -29 78 -66 102 -83
63 -46 157 -117 173 -132 7 -8 36 -29 65 -48 28 -19 71 -51 96 -71 25 -19 76
-59 113 -87 38 -29 86 -65 106 -82 21 -16 59 -46 85 -65 99 -72 198 -148 311
-235 64 -49 147 -112 185 -140 38 -27 105 -78 150 -112 95 -73 140 -89 196
-71 50 17 102 83 234 298 58 95 112 177 177 274 34 50 74 114 89 141 15 28 40
65 55 83 16 18 41 56 55 85 15 29 41 70 59 92 84 105 58 189 -89 287 -34 23
-77 55 -97 72 -19 17 -55 45 -80 63 -52 37 -223 167 -294 223 -27 22 -64 50
-82 62 -72 52 -179 136 -192 152 -7 9 -18 16 -24 16 -6 0 -31 17 -56 38 -25
21 -71 56 -101 77 -30 21 -71 51 -90 67 -19 16 -80 64 -135 106 -55 41 -106
82 -114 89 -7 8 -29 22 -50 32 -20 10 -45 29 -56 41 -11 12 -40 36 -65 53 -25
17 -47 34 -50 37 -3 4 -54 43 -115 88 -60 45 -132 100 -160 122 -27 22 -72 56
-100 77 -27 20 -76 57 -108 82 -33 25 -75 57 -95 70 -21 13 -54 39 -74 57 -21
18 -57 45 -80 60 -24 15 -61 42 -83 61 -43 38 -187 148 -295 228 -155 114
-169 124 -310 239 -9 6 -38 27 -65 45 -28 19 -62 45 -76 58 -15 14 -47 39 -72
56 -24 18 -79 59 -122 92 -43 33 -94 71 -114 84 -20 13 -52 38 -71 56 -19 18
-60 49 -90 69 -30 20 -118 86 -195 146 -77 61 -163 125 -191 144 -29 19 -55
39 -59 45 -3 6 -32 29 -63 51 -31 22 -88 65 -127 95 -38 31 -93 71 -120 89
-28 19 -57 42 -65 51 -8 9 -39 34 -70 55 -30 21 -65 46 -77 57 -12 10 -58 46
-103 79 -45 32 -102 76 -127 97 -25 21 -68 52 -96 71 -29 18 -59 41 -67 50 -8
10 -39 36 -70 57 -74 52 -104 75 -173 132 -32 26 -63 47 -68 47 -4 0 -30 19
-57 43 -52 44 -228 179 -309 235 -27 19 -59 44 -73 57 -14 14 -56 46 -92 72
-72 51 -290 216 -323 245 -11 9 -41 32 -67 50 -27 18 -109 80 -183 138 -75 58
-160 123 -189 145 -30 22 -75 56 -101 75 -26 19 -91 69 -144 111 -53 41 -117
89 -143 107 -25 18 -53 38 -61 46 -8 8 -41 34 -74 58 -56 40 -183 136 -296
225 -27 21 -71 54 -97 73 -27 19 -110 82 -185 140 -74 58 -160 123 -190 145
-67 50 -199 150 -222 170 -29 23 -101 78 -147 110 -24 17 -61 45 -84 63 -22
18 -63 50 -91 70 -27 20 -112 84 -187 142 -75 58 -158 121 -185 140 -26 19
-82 62 -124 95 -43 33 -97 74 -122 92 -25 17 -57 42 -72 55 -14 13 -46 37 -71
53 -25 15 -56 39 -70 52 -25 25 -155 124 -245 187 -60 43 -120 53 -182 30z
m122 -1785 c22 -6 73 -36 114 -67 79 -61 132 -100 232 -174 35 -26 80 -60 99
-76 44 -36 265 -205 330 -252 89 -65 143 -105 181 -135 20 -16 68 -53 106 -82
37 -28 88 -68 113 -87 25 -20 77 -58 115 -86 39 -28 91 -67 116 -88 88 -70
111 -88 259 -197 63 -47 138 -103 284 -217 34 -26 84 -63 112 -82 29 -19 55
-39 59 -45 3 -6 32 -29 63 -51 31 -22 89 -64 127 -95 39 -30 97 -74 130 -98
33 -24 71 -53 85 -65 14 -11 49 -38 77 -59 29 -21 114 -85 189 -143 75 -58
158 -121 185 -140 26 -19 77 -57 111 -84 115 -91 219 -171 263 -201 43 -30
145 -108 263 -201 35 -27 94 -71 132 -99 37 -27 90 -66 116 -85 26 -19 61 -47
78 -61 38 -31 259 -200 327 -249 27 -19 81 -61 121 -92 40 -31 118 -90 173
-132 164 -122 215 -161 313 -238 51 -40 121 -93 157 -118 35 -25 74 -55 87
-66 13 -12 43 -35 68 -52 25 -17 77 -56 115 -87 39 -30 90 -69 115 -87 82 -57
191 -160 210 -199 20 -38 20 -101 20 -5434 0 -4773 -1 -5399 -15 -5424 -22
-43 -59 -68 -118 -81 -38 -8 -1531 -10 -5522 -8 l-5470 3 -53 28 c-30 16 -61
42 -72 60 -20 32 -20 80 -18 5477 3 4535 5 5450 16 5477 20 47 193 194 427
363 39 28 93 69 120 91 92 74 237 184 273 208 21 13 51 36 67 51 17 15 50 41
75 59 25 17 74 54 110 81 36 28 82 62 103 78 21 15 55 41 74 57 20 17 55 44
78 60 23 17 77 57 120 90 82 64 134 103 264 200 44 33 142 107 217 165 75 58
157 121 184 140 76 56 292 221 326 249 17 14 52 42 79 61 74 54 178 131 227
170 90 71 202 156 269 205 38 28 130 97 205 155 75 58 158 121 185 140 26 19
109 82 184 140 74 58 157 121 184 140 26 19 71 53 99 75 29 22 82 63 118 90
73 56 164 125 237 182 27 21 70 54 97 73 76 54 216 160 279 211 31 25 74 58
96 73 22 15 72 52 110 82 107 85 269 208 398 304 41 30 109 81 152 114 123 92
168 107 250 85z"/>
<path d="M10440 13379 c-220 -12 -346 -29 -440 -61 -47 -16 -151 -47 -233 -68
-159 -43 -176 -49 -222 -89 -17 -14 -71 -39 -120 -55 -119 -38 -119 -38 -200
-91 -38 -25 -88 -54 -110 -65 -22 -10 -54 -33 -70 -50 -17 -18 -56 -50 -88
-72 -32 -21 -79 -58 -106 -81 -26 -23 -72 -60 -100 -82 -135 -103 -373 -383
-537 -629 -25 -37 -50 -79 -55 -93 -5 -14 -24 -48 -43 -77 -65 -100 -160 -300
-207 -436 -18 -52 -38 -104 -45 -115 -62 -97 -179 -484 -205 -675 -11 -85 -53
-268 -73 -320 -26 -68 -46 -209 -56 -396 -5 -104 -19 -281 -31 -394 -15 -145
-20 -241 -16 -328 6 -141 -1 -157 -68 -172 -22 -5 -342 -10 -727 -10 -452 0
-704 -4 -737 -11 -100 -21 -129 -99 -67 -180 18 -24 47 -71 64 -104 16 -33 44
-73 62 -90 17 -16 41 -48 52 -70 11 -22 33 -53 48 -70 16 -16 45 -55 67 -87
21 -31 68 -99 106 -151 37 -53 67 -100 67 -105 0 -5 17 -29 38 -53 21 -24 52
-66 67 -94 16 -27 43 -67 61 -87 19 -21 45 -57 60 -80 14 -24 48 -65 74 -93
60 -62 81 -122 57 -159 l-16 -24 -428 -4 -428 -3 -41 -24 c-23 -13 -47 -34
-53 -47 -7 -17 -11 -594 -11 -1965 l-1 -1942 26 -38 c14 -21 40 -46 57 -56 31
-17 151 -18 2338 -21 l2305 -2 45 22 c25 13 53 37 63 55 17 30 18 111 17 1985
0 1872 -1 1954 -18 1978 -40 54 -81 59 -499 60 l-383 0 -15 24 c-12 18 -14 35
-9 63 10 55 26 83 77 129 25 23 55 61 67 85 12 24 39 62 59 84 21 22 50 60 65
85 30 51 88 134 116 167 11 12 30 44 44 70 13 26 38 62 56 78 17 17 43 54 57
83 13 29 36 60 49 69 14 9 37 37 51 62 15 25 43 66 64 91 61 75 143 221 143
257 0 35 -23 66 -69 92 -27 14 -105 17 -740 21 -531 4 -717 8 -738 17 -42 19
-52 51 -38 120 6 32 16 170 21 307 9 222 13 263 40 370 33 135 50 232 80 448
17 121 27 161 55 220 19 40 43 107 54 149 11 42 42 123 69 180 27 57 53 117
56 132 6 25 40 84 96 168 10 14 32 53 49 86 17 34 44 71 61 83 17 12 39 39 50
60 11 21 33 49 50 61 17 13 64 53 104 89 39 36 99 78 132 95 32 16 77 46 99
67 42 38 93 56 270 94 44 9 94 25 112 35 118 66 396 96 633 69 83 -9 226 -47
270 -70 27 -14 158 -49 186 -50 52 0 157 -43 197 -79 23 -21 67 -49 97 -63 54
-24 208 -144 262 -203 178 -196 217 -254 344 -515 103 -214 127 -271 145 -359
6 -31 19 -72 29 -91 57 -113 94 -245 104 -370 2 -36 29 -189 59 -340 39 -193
57 -312 62 -400 4 -69 6 -1127 5 -2352 -1 -1562 2 -2239 10 -2267 14 -53 52
-97 98 -113 29 -10 164 -13 622 -13 542 0 588 1 621 18 52 26 99 79 109 123
13 55 13 4162 0 4454 -7 166 -17 275 -34 370 -13 74 -27 176 -31 225 -10 134
-43 414 -55 465 -6 25 -24 88 -40 140 -16 52 -32 113 -35 135 -26 163 -47 241
-104 400 -6 17 -27 79 -47 140 -19 60 -39 114 -44 120 -15 19 -77 180 -84 220
-9 45 -34 98 -82 171 -19 28 -40 69 -48 91 -8 23 -32 67 -54 99 -22 33 -61
100 -85 149 -25 50 -55 98 -66 107 -11 10 -34 44 -50 77 -17 33 -35 62 -41 66
-6 4 -42 48 -80 100 -88 117 -367 402 -440 448 -30 19 -68 49 -85 67 -16 17
-48 41 -70 52 -22 11 -58 37 -80 59 -22 21 -80 61 -130 89 -49 29 -99 60 -110
71 -12 10 -73 35 -135 55 -64 21 -126 47 -140 60 -28 25 -126 74 -151 74 -23
0 -225 55 -309 85 -100 35 -223 52 -467 64 -225 12 -414 12 -633 0z m-693
-6669 c85 -37 77 64 83 -1165 4 -843 2 -1100 -7 -1135 -14 -50 -51 -92 -97
-110 -37 -14 -3075 -15 -3123 -1 -83 24 -134 98 -129 186 2 28 4 514 5 1081 1
612 6 1045 11 1065 12 42 74 85 134 94 22 3 188 5 367 3 l325 -3 57 -51 c60
-53 233 -278 272 -354 13 -25 35 -56 50 -70 15 -14 36 -43 47 -64 11 -22 41
-66 67 -98 59 -73 97 -126 176 -247 36 -53 74 -106 85 -117 26 -28 80 -36 143
-22 41 8 61 21 102 63 29 29 63 74 75 101 13 27 43 69 66 94 23 25 49 61 57
80 8 19 32 53 53 76 22 22 51 60 66 85 55 89 178 265 216 309 21 25 49 63 61
85 15 27 46 55 95 87 l72 48 275 2 c315 3 339 2 396 -22z"/>
</g>
</svg>
