<?xml version="1.0" standalone="no"?>
<!DOCTYPE svg PUBLIC "-//W3C//DTD SVG 20010904//EN"
 "http://www.w3.org/TR/2001/REC-SVG-20010904/DTD/svg10.dtd">
<svg version="1.0" xmlns="http://www.w3.org/2000/svg"
 width="200.000000pt" height="200.000000pt" viewBox="0 0 200.000000 200.000000"
 preserveAspectRatio="xMidYMid meet">

<g transform="translate(0.000000,200.000000) scale(0.100000,-0.100000)"
fill="#000000" stroke="none">
<path d="M675 1330 c-181 -149 -330 -276 -330 -283 0 -8 20 -13 58 -15 l57 -3
0 -54 0 -55 -99 0 -98 0 5 25 c3 20 0 25 -16 25 -25 0 -152 -56 -152 -67 0
-12 146 -83 154 -76 3 4 6 17 6 30 0 23 2 23 99 23 l98 0 5 -157 c6 -179 18
-223 74 -272 18 -17 50 -35 71 -40 54 -15 769 -15 814 0 51 17 94 53 115 96
16 31 20 68 24 208 l5 170 82 3 82 3 7 -36 c3 -19 8 -35 10 -35 12 0 154 76
154 83 0 11 -127 67 -151 67 -14 0 -19 -7 -19 -25 0 -25 -1 -25 -85 -25 l-85
0 0 55 0 55 64 0 c102 0 100 6 -39 116 l-84 67 -3 136 -3 136 -130 0 c-127 0
-129 0 -135 -24 -5 -22 -11 -18 -104 58 -54 45 -103 81 -110 81 -6 -1 -159
-122 -341 -270z m460 141 c61 -50 113 -87 117 -83 3 4 8 21 10 37 l3 30 100 0
100 0 3 -130 4 -130 81 -65 81 -65 -52 -3 -52 -3 0 -70 0 -69 -51 0 c-43 0
-50 -3 -47 -17 2 -14 15 -19 51 -21 l47 -3 0 -148 c0 -197 -16 -241 -105 -282
-37 -17 -71 -19 -405 -19 -209 0 -380 4 -400 10 -41 11 -94 61 -109 103 -6 16
-11 98 -11 182 l0 154 48 3 c34 2 47 7 47 18 0 11 -13 16 -47 18 l-47 3 -3 67
-3 67 -42 3 c-24 2 -43 6 -42 10 0 10 592 491 604 491 6 1 60 -39 120 -88z"/>
<path d="M903 1263 c-13 -2 -23 -11 -23 -18 0 -11 18 -13 88 -8 113 7 182 -17
259 -90 55 -52 64 -67 38 -67 -33 0 -26 -31 21 -90 26 -33 52 -59 58 -57 13 4
40 143 32 163 -4 10 -14 12 -32 8 -22 -6 -32 0 -70 44 -30 34 -67 62 -111 84
-56 28 -77 32 -152 34 -47 1 -96 0 -108 -3z"/>
<path d="M750 1206 c-76 -24 -95 -42 -66 -65 13 -11 11 -20 -17 -74 -30 -58
-32 -69 -32 -162 0 -89 3 -106 28 -157 41 -84 141 -177 164 -154 3 3 -21 31
-54 63 -85 83 -108 135 -108 248 0 79 3 96 28 144 l28 53 24 -22 24 -22 35 71
c35 68 44 102 29 100 -5 0 -42 -11 -83 -23z"/>
<path d="M874 1126 c-3 -8 5 -30 19 -48 23 -31 67 -111 67 -122 0 -3 -21 -3
-47 0 -59 6 -107 -20 -129 -71 -16 -39 -19 -105 -4 -105 5 0 34 16 65 35 30
19 66 40 80 45 25 9 25 9 25 -43 0 -66 16 -97 60 -119 36 -19 120 -25 120 -9
0 4 -8 19 -19 32 -10 13 -33 50 -51 82 l-33 59 45 -7 c54 -8 109 12 133 48 8
13 18 48 22 76 7 59 -3 64 -52 30 -29 -20 -121 -69 -128 -69 -2 0 -2 22 1 48
8 85 -31 131 -125 147 -34 5 -44 4 -49 -9z m165 -198 c11 -28 -8 -62 -37 -66
-30 -5 -57 39 -42 67 15 30 68 29 79 -1z"/>
<path d="M1330 860 c0 -44 -43 -132 -91 -184 -48 -52 -112 -89 -179 -102 -27
-6 -30 -4 -30 20 0 21 -5 26 -22 25 -40 -1 -141 -34 -145 -46 -2 -6 26 -32 64
-57 62 -42 69 -45 81 -29 6 9 12 24 12 34 0 12 11 18 39 22 57 7 142 49 190
92 70 64 142 245 97 245 -9 0 -16 -8 -16 -20z"/>
</g>
</svg>
