<?xml version="1.0" standalone="no"?>
<!DOCTYPE svg PUBLIC "-//W3C//DTD SVG 20010904//EN"
 "http://www.w3.org/TR/2001/REC-SVG-20010904/DTD/svg10.dtd">
<svg version="1.0" xmlns="http://www.w3.org/2000/svg"
 width="2022.000000pt" height="2022.000000pt" viewBox="0 0 2022.000000 2022.000000"
 preserveAspectRatio="xMidYMid meet">

<g transform="translate(0.000000,2022.000000) scale(0.100000,-0.100000)"
fill="#000000" stroke="none">
<path d="M10445 18175 c-16 -9 -61 -39 -98 -68 -38 -28 -93 -70 -122 -92 -162
-121 -255 -193 -295 -228 -25 -21 -58 -46 -75 -54 -16 -9 -48 -32 -71 -52 -42
-37 -165 -131 -278 -211 -35 -25 -81 -60 -102 -77 -53 -45 -219 -170 -400
-303 -26 -19 -81 -62 -123 -95 -42 -33 -92 -71 -111 -84 -19 -13 -49 -37 -66
-53 -17 -16 -58 -48 -92 -71 -73 -50 -205 -149 -282 -212 -30 -25 -76 -59
-102 -77 -26 -18 -99 -73 -163 -123 -64 -49 -137 -105 -163 -123 -26 -18 -63
-46 -82 -62 -44 -37 -225 -174 -289 -220 -27 -19 -64 -48 -82 -63 -45 -38
-227 -174 -285 -214 -26 -17 -61 -45 -78 -61 -17 -16 -49 -41 -71 -54 -22 -14
-76 -54 -120 -89 -44 -36 -96 -74 -116 -86 -19 -12 -44 -32 -55 -44 -10 -12
-41 -37 -69 -56 -27 -18 -81 -58 -120 -89 -38 -31 -88 -67 -110 -81 -22 -14
-54 -38 -70 -54 -17 -16 -49 -41 -72 -56 -60 -41 -273 -203 -295 -225 -10 -10
-42 -34 -71 -52 -29 -19 -61 -43 -71 -55 -11 -12 -36 -31 -55 -43 -20 -12 -76
-54 -126 -93 -49 -40 -108 -83 -130 -97 -22 -14 -49 -35 -59 -47 -11 -12 -36
-31 -55 -43 -20 -12 -70 -49 -111 -83 -41 -34 -95 -74 -120 -90 -25 -16 -58
-41 -75 -56 -16 -15 -51 -43 -78 -61 -65 -45 -244 -183 -287 -220 -19 -17 -56
-44 -82 -62 -70 -47 -272 -202 -288 -221 -7 -9 -34 -28 -59 -42 -25 -15 -64
-43 -87 -62 -22 -20 -69 -56 -104 -81 -36 -25 -83 -61 -105 -81 -22 -19 -58
-46 -80 -59 -22 -13 -58 -40 -81 -59 -22 -20 -72 -58 -110 -86 -38 -27 -85
-64 -104 -80 -19 -17 -59 -46 -87 -64 -29 -18 -53 -36 -53 -41 0 -4 -30 -28
-68 -53 -68 -48 -206 -152 -276 -210 -21 -18 -67 -52 -102 -77 -84 -60 -216
-159 -284 -215 -30 -25 -76 -59 -102 -77 -26 -18 -100 -73 -164 -123 -63 -49
-137 -104 -162 -121 -26 -18 -56 -40 -67 -51 -24 -23 -274 -213 -411 -313 -26
-19 -91 -69 -145 -112 -53 -42 -114 -87 -135 -101 -22 -13 -48 -34 -58 -46
-11 -12 -36 -31 -55 -43 -20 -12 -76 -54 -126 -93 -49 -39 -106 -81 -126 -93
-19 -12 -44 -31 -55 -43 -10 -12 -42 -36 -71 -55 -57 -37 -108 -99 -118 -144
-9 -40 27 -116 109 -234 35 -51 72 -108 81 -127 10 -19 31 -49 46 -67 16 -18
42 -59 58 -90 16 -31 41 -68 56 -82 36 -33 67 -97 60 -120 -3 -10 -23 -29 -43
-42 -37 -23 -38 -23 -507 -28 -514 -5 -512 -5 -547 -65 -16 -28 -17 -79 -18
-660 -1 -389 2 -640 8 -655 18 -45 59 -77 110 -84 59 -8 3025 -8 3047 0 17 7
140 -14 170 -29 11 -5 35 -23 52 -40 l33 -31 0 -4124 c0 -3700 2 -4127 15
-4157 9 -17 30 -45 46 -61 l30 -29 6809 0 6809 0 28 21 c15 12 36 35 46 51 16
29 17 289 20 5386 2 5250 2 5355 21 5376 45 49 187 0 287 -100 15 -15 188
-148 298 -229 55 -40 177 -134 269 -206 35 -27 83 -62 106 -79 23 -16 65 -48
93 -70 28 -22 82 -62 118 -90 37 -27 81 -62 99 -76 17 -14 51 -40 76 -58 25
-17 74 -54 110 -81 36 -28 85 -65 109 -83 24 -17 70 -53 102 -79 113 -90 162
-85 251 28 29 37 67 91 83 120 17 29 55 90 86 136 31 46 68 104 83 130 15 25
34 52 42 59 9 7 29 38 45 68 16 31 42 74 58 96 114 162 213 327 218 363 12 87
-10 114 -203 259 -60 45 -128 97 -152 115 -24 18 -68 51 -98 73 -57 42 -227
171 -282 214 -18 14 -57 44 -87 66 -29 22 -115 87 -190 145 -75 58 -155 117
-178 133 -22 15 -55 40 -72 55 -16 16 -48 40 -70 55 -22 15 -62 45 -90 67 -27
22 -84 65 -125 96 -41 30 -95 71 -120 90 -25 19 -76 59 -113 87 -38 29 -74 57
-80 62 -7 6 -34 26 -62 44 -27 19 -62 45 -76 58 -15 14 -47 39 -72 56 -44 31
-205 152 -275 206 -18 14 -57 44 -86 66 -30 22 -106 81 -171 130 -64 50 -145
110 -179 135 -35 25 -79 58 -97 73 -59 50 -211 165 -286 217 -39 27 -74 54
-78 60 -3 5 -29 26 -58 45 -29 20 -79 58 -112 86 -33 27 -85 66 -115 85 -30
20 -59 42 -65 48 -12 14 -225 177 -292 224 -27 19 -59 44 -73 56 -14 12 -54
44 -90 69 -36 26 -87 65 -115 87 -27 22 -73 56 -100 74 -28 19 -57 42 -65 51
-8 9 -37 32 -65 50 -27 19 -81 59 -120 90 -38 30 -90 69 -115 87 -25 17 -57
42 -71 55 -14 13 -44 36 -66 51 -23 15 -102 74 -177 132 -129 100 -183 140
-291 220 -26 19 -94 71 -151 115 -57 44 -121 92 -141 107 -21 16 -66 49 -101
75 -142 109 -259 198 -290 222 -18 14 -58 44 -88 66 -123 91 -269 202 -311
237 -24 21 -54 43 -66 49 -12 6 -34 23 -48 36 -15 14 -47 39 -72 56 -24 18
-70 52 -102 77 -31 25 -87 68 -125 95 -37 28 -120 91 -185 140 -64 50 -144
110 -178 133 -34 24 -74 55 -88 69 -15 14 -48 39 -73 56 -66 46 -244 180 -291
219 -22 19 -56 45 -75 58 -19 14 -58 43 -85 65 -28 22 -64 50 -80 62 -54 39
-121 90 -141 106 -10 9 -43 33 -72 54 -28 21 -104 79 -168 128 -64 50 -147
113 -185 140 -38 28 -121 91 -185 140 -65 50 -148 113 -185 140 -38 28 -120
91 -184 140 -63 50 -142 109 -176 132 -35 23 -65 46 -68 51 -3 4 -33 28 -66
53 -33 25 -96 73 -140 106 -44 34 -93 66 -108 72 -40 16 -117 13 -152 -4z
m170 -1765 c22 -11 72 -45 110 -76 76 -59 308 -237 385 -294 93 -68 165 -124
179 -138 8 -8 30 -25 50 -38 42 -28 152 -111 316 -239 64 -49 145 -110 180
-135 35 -25 130 -97 212 -160 81 -64 160 -123 174 -132 14 -9 32 -23 40 -30 8
-8 35 -30 60 -49 25 -19 81 -61 124 -94 43 -33 99 -76 126 -95 26 -19 63 -47
81 -61 88 -68 308 -235 428 -324 41 -30 93 -70 116 -88 83 -65 198 -153 239
-182 41 -30 139 -104 259 -197 34 -26 79 -60 101 -75 22 -15 52 -38 66 -51 15
-13 47 -38 72 -55 24 -18 79 -59 122 -92 42 -33 99 -76 126 -95 26 -19 83 -62
125 -95 125 -97 186 -143 239 -179 28 -18 59 -44 70 -56 11 -12 32 -28 47 -36
14 -7 47 -31 71 -51 25 -21 75 -60 112 -88 36 -27 90 -68 118 -90 28 -22 71
-53 94 -70 23 -16 104 -77 178 -135 75 -58 158 -121 184 -140 27 -19 82 -61
122 -92 41 -31 117 -88 169 -128 330 -247 379 -288 427 -358 l43 -63 -2 -5339
-3 -5339 -21 -28 c-12 -15 -36 -37 -55 -48 -34 -20 -54 -20 -5473 -23 -3819
-1 -5450 1 -5478 9 -22 5 -56 25 -75 43 -32 29 -37 41 -44 97 -13 102 -11
7050 2 7087 12 36 73 80 126 93 49 11 1571 11 1728 0 143 -11 270 -41 345 -83
184 -103 213 -123 280 -200 117 -132 180 -236 180 -296 0 -34 -33 -69 -81 -82
-21 -7 -281 -10 -694 -9 -363 0 -669 -3 -680 -7 -11 -4 -31 -19 -44 -32 -40
-43 -15 -107 95 -247 18 -22 56 -75 85 -118 30 -43 72 -105 95 -138 23 -33 52
-72 66 -87 14 -15 35 -45 46 -67 11 -22 30 -50 41 -62 11 -12 33 -41 48 -65
29 -45 44 -65 154 -213 122 -164 155 -243 120 -286 l-19 -24 -351 -3 c-382 -4
-420 -8 -455 -55 l-21 -28 -5 -1885 c-3 -1036 -3 -1917 0 -1958 6 -91 26 -117
101 -134 38 -9 625 -12 2322 -12 l2271 0 43 21 c80 39 73 -146 73 2012 l0
1934 -23 33 c-12 19 -37 42 -54 53 -31 17 -59 18 -468 17 -285 0 -449 3 -476
10 -46 13 -60 37 -49 87 9 39 110 211 141 239 11 10 33 39 47 64 14 25 33 54
43 65 37 43 223 302 241 336 10 20 30 47 44 60 14 13 37 46 50 72 14 26 40 64
58 85 18 20 49 62 69 92 19 30 47 70 61 89 36 49 35 92 -5 125 -17 14 -40 26
-52 26 -12 1 -297 0 -632 0 -418 0 -627 3 -663 11 -30 6 -71 24 -95 43 -40 30
-42 35 -65 136 -38 172 -62 253 -86 290 -13 19 -38 85 -55 145 -18 61 -37 115
-42 121 -16 19 -87 162 -99 199 -6 19 -27 54 -46 77 -20 23 -44 59 -55 81 -49
96 -201 284 -318 395 -101 96 -335 282 -354 282 -5 0 -30 15 -56 33 -25 18
-80 48 -121 65 -41 18 -91 41 -110 52 -76 42 -164 80 -194 85 -17 3 -58 10
-91 16 -73 12 -179 37 -214 51 -77 30 -190 50 -316 58 -77 5 -502 9 -945 10
-867 1 -841 -1 -913 54 l-37 28 0 977 c1 537 5 995 9 1018 15 76 111 168 394
376 68 49 146 108 242 182 108 83 176 135 224 170 41 30 122 92 211 161 120
93 158 121 197 149 23 17 104 77 179 135 75 58 158 121 185 140 27 19 110 82
185 140 140 108 208 160 290 220 26 19 64 49 85 65 35 28 106 82 207 158 66
49 136 101 287 217 76 58 159 121 185 140 26 19 90 67 141 107 92 70 176 134
251 190 20 16 89 69 153 118 65 50 148 113 185 140 38 28 121 91 185 140 65
50 147 113 185 140 37 28 88 66 112 85 118 92 204 158 243 185 42 30 143 107
263 201 35 27 83 63 106 79 23 17 62 46 87 66 24 19 54 42 66 50 12 8 56 41
98 74 92 71 173 132 235 176 25 18 68 51 95 73 75 62 121 95 147 106 40 16
120 11 163 -10z m-6943 -5227 c8 -10 18 -27 23 -38 4 -11 7 -220 6 -465 l-2
-445 -32 -27 c-18 -15 -54 -32 -80 -37 -31 -7 -249 -11 -602 -11 -528 0 -557
1 -607 20 -29 11 -59 29 -66 41 -17 28 -5 41 105 115 47 31 102 71 123 88 37
29 115 89 202 153 21 16 99 75 174 133 76 58 159 121 185 140 66 47 240 182
316 245 115 94 218 130 255 88z m3957 -5392 c33 -22 66 -54 86 -86 18 -28 40
-57 49 -64 9 -7 30 -39 48 -70 18 -31 46 -71 62 -89 16 -18 39 -49 51 -70 21
-36 160 -232 228 -322 19 -25 41 -58 50 -75 8 -16 24 -39 34 -50 10 -11 29
-36 41 -56 32 -52 76 -71 132 -57 54 14 105 63 158 154 22 38 50 78 62 89 12
11 33 42 46 68 14 26 39 64 57 85 18 20 58 72 87 116 30 43 67 92 81 110 14
17 37 51 52 76 14 25 41 62 60 83 19 20 42 54 51 75 20 43 88 93 151 111 26 7
178 11 435 11 356 0 398 -2 429 -18 19 -9 43 -28 53 -42 17 -24 18 -81 19
-1112 0 -1063 0 -1088 -19 -1132 -15 -33 -31 -50 -61 -65 -40 -21 -44 -21
-1559 -21 -1629 0 -1570 -2 -1625 48 -50 44 -48 9 -48 1170 0 1234 -8 1121 87
1154 43 15 87 17 349 15 l301 -2 53 -34z"/>
</g>
</svg>
