<?xml version="1.0" standalone="no"?>
<!DOCTYPE svg PUBLIC "-//W3C//DTD SVG 20010904//EN"
 "http://www.w3.org/TR/2001/REC-SVG-20010904/DTD/svg10.dtd">
<svg version="1.0" xmlns="http://www.w3.org/2000/svg"
 width="2022.000000pt" height="2022.000000pt" viewBox="0 0 2022.000000 2022.000000"
 preserveAspectRatio="xMidYMid meet">

<g transform="translate(0.000000,2022.000000) scale(0.100000,-0.100000)"
fill="#000000" stroke="none">
<path d="M10140 20181 c0 -46 -30 -87 -88 -122 -32 -20 -156 -122 -187 -155
-5 -5 -28 -23 -50 -39 -22 -16 -56 -47 -75 -68 -19 -22 -58 -54 -87 -73 -30
-19 -56 -40 -59 -47 -2 -6 -36 -37 -75 -67 -39 -30 -104 -84 -144 -120 -40
-36 -105 -92 -145 -125 -39 -33 -112 -96 -162 -140 -49 -44 -111 -95 -136
-112 -26 -18 -64 -51 -84 -73 -21 -22 -41 -40 -45 -40 -5 0 -31 -22 -60 -48
-28 -26 -80 -69 -114 -97 -35 -27 -88 -73 -118 -102 -31 -29 -73 -65 -93 -80
-51 -39 -199 -166 -281 -240 -38 -35 -73 -63 -78 -63 -5 0 -40 -28 -77 -63
-37 -34 -102 -91 -144 -125 -43 -35 -78 -67 -78 -72 0 -4 -24 -24 -54 -44 -30
-20 -65 -48 -78 -64 -13 -15 -48 -46 -78 -69 -30 -23 -73 -58 -95 -78 -22 -20
-67 -57 -99 -83 -32 -26 -79 -68 -104 -94 -25 -27 -51 -48 -57 -48 -12 0 -163
-129 -295 -250 -30 -28 -67 -59 -81 -68 -25 -17 -53 -41 -227 -194 -45 -40
-104 -90 -130 -110 -25 -21 -67 -56 -92 -78 -52 -46 -115 -100 -220 -185 -40
-33 -100 -86 -132 -117 -32 -32 -62 -58 -67 -58 -4 0 -33 -21 -63 -47 -30 -27
-76 -66 -103 -88 -27 -22 -84 -73 -127 -112 -43 -40 -83 -73 -88 -73 -5 0 -34
-24 -63 -52 -29 -29 -93 -84 -140 -121 -48 -38 -87 -73 -87 -78 0 -5 -26 -26
-57 -46 -32 -21 -64 -46 -71 -56 -8 -10 -37 -36 -65 -59 -29 -22 -88 -72 -131
-112 -43 -39 -95 -82 -115 -95 -19 -14 -46 -37 -59 -53 -13 -15 -45 -42 -72
-60 -26 -18 -74 -58 -107 -88 -32 -30 -78 -71 -102 -90 -24 -19 -55 -46 -69
-60 -13 -14 -53 -47 -88 -75 -95 -75 -231 -191 -301 -257 -34 -32 -66 -58 -72
-58 -6 0 -35 -24 -65 -52 -29 -29 -86 -80 -126 -113 -40 -33 -100 -82 -134
-110 -33 -27 -79 -68 -101 -90 -22 -22 -54 -49 -70 -59 -31 -20 -89 -69 -248
-211 -49 -44 -108 -93 -131 -108 -22 -16 -51 -39 -63 -52 -12 -13 -62 -56
-110 -97 -49 -40 -99 -86 -113 -101 -14 -16 -51 -46 -82 -68 -31 -21 -63 -47
-70 -56 -7 -10 -34 -34 -60 -54 -25 -19 -83 -69 -129 -110 -45 -41 -91 -80
-103 -88 -12 -8 -39 -31 -61 -52 -22 -21 -63 -55 -92 -76 -55 -40 -184 -152
-268 -232 -27 -26 -66 -57 -85 -69 -20 -11 -47 -33 -60 -48 -14 -15 -47 -45
-75 -67 -27 -21 -84 -70 -125 -108 -41 -37 -93 -81 -115 -97 -22 -16 -56 -44
-75 -63 -35 -33 -188 -162 -292 -244 -51 -40 -88 -109 -88 -162 0 -31 33 -103
63 -139 14 -17 39 -58 54 -90 15 -33 41 -80 56 -104 16 -25 54 -90 85 -145 31
-55 62 -106 70 -114 7 -8 31 -50 53 -95 21 -45 49 -95 61 -113 13 -17 40 -62
61 -100 20 -37 55 -97 77 -132 22 -34 40 -66 40 -70 0 -13 52 -61 68 -62 81
-7 130 13 205 85 31 31 61 56 65 56 5 0 17 8 28 18 59 53 211 186 283 247 190
160 276 234 369 318 35 31 68 57 73 57 5 0 31 20 57 44 68 64 258 226 307 263
24 17 49 40 56 50 8 10 34 34 59 53 25 19 91 77 148 130 134 123 158 140 203
140 41 0 60 -17 78 -69 8 -25 11 -1571 11 -6061 0 -3315 3 -6041 6 -6057 6
-33 44 -60 109 -80 32 -10 1423 -13 6600 -12 6157 0 6562 1 6594 17 19 9 44
30 55 45 l21 28 2 6016 c2 5619 4 6017 19 6034 47 52 150 -3 365 -196 100 -89
173 -153 204 -176 17 -13 66 -55 110 -94 44 -39 94 -81 110 -94 17 -12 48 -39
70 -60 22 -21 54 -46 70 -56 17 -11 46 -35 66 -55 20 -19 74 -66 120 -105 46
-38 96 -82 111 -97 16 -15 43 -37 61 -49 38 -27 98 -79 252 -216 119 -107 158
-133 198 -133 54 0 122 71 192 200 19 36 45 82 57 102 80 129 108 178 108 186
0 5 13 27 29 50 17 22 48 76 71 119 22 43 59 107 80 143 22 36 54 91 71 124
17 32 49 86 72 119 34 50 42 70 45 119 3 33 -1 71 -8 87 -12 31 -82 99 -215
211 -42 36 -100 86 -128 111 -29 25 -62 52 -73 60 -12 8 -50 40 -85 72 -35 32
-78 70 -95 85 -17 16 -46 39 -65 52 -19 13 -54 42 -80 64 -71 64 -118 105
-204 178 -146 124 -215 182 -279 238 -35 30 -94 80 -131 110 -37 30 -83 72
-103 93 -19 20 -54 48 -76 61 -23 14 -61 45 -85 70 -24 26 -48 46 -52 46 -3 0
-27 19 -51 43 -24 23 -77 69 -117 102 -41 33 -97 80 -125 105 -28 25 -71 62
-96 82 -25 19 -57 46 -71 59 -72 66 -108 97 -144 124 -22 16 -49 40 -60 53
-11 12 -41 37 -67 55 -25 17 -88 69 -140 115 -154 137 -198 174 -236 202 -21
15 -55 44 -77 66 -23 21 -50 46 -60 54 -52 40 -160 134 -163 142 -2 4 -25 22
-50 40 -26 17 -71 55 -101 85 -30 29 -57 53 -61 53 -4 0 -28 19 -53 43 -26 23
-52 47 -60 52 -7 6 -33 28 -59 50 -26 22 -76 65 -113 95 -36 30 -94 80 -129
110 -35 30 -94 80 -131 110 -36 30 -81 68 -98 83 -18 16 -52 45 -77 65 -25 20
-65 54 -90 77 -25 22 -66 58 -91 80 -25 22 -80 69 -124 105 -43 36 -101 85
-130 110 -29 25 -63 54 -76 64 -27 22 -147 126 -194 168 -16 16 -33 28 -37 28
-3 0 -34 27 -68 60 -34 33 -66 60 -71 60 -4 0 -55 42 -112 93 -178 157 -229
201 -258 220 -15 10 -45 35 -66 55 -21 20 -52 48 -68 61 -67 54 -160 136 -163
144 -2 4 -36 32 -75 62 -74 57 -121 96 -268 223 -85 74 -189 163 -289 248 -64
54 -138 118 -234 204 -38 34 -82 68 -97 76 -15 7 -34 22 -41 32 -13 18 -224
200 -298 257 -48 37 -105 86 -221 190 -50 44 -111 95 -137 114 -26 19 -63 51
-82 71 -19 19 -51 46 -70 60 -19 13 -49 38 -66 54 -17 17 -61 56 -98 86 -37
30 -96 80 -131 110 -35 30 -98 84 -140 120 -43 36 -124 106 -181 157 -57 51
-114 97 -126 104 -13 7 -32 21 -43 33 -18 19 -93 84 -180 156 -16 14 -50 44
-74 68 -24 23 -48 42 -52 42 -4 0 -36 26 -72 58 -35 31 -102 89 -147 127 -117
99 -158 134 -210 181 -25 23 -63 52 -85 66 -22 14 -57 43 -77 64 -30 31 -38
46 -38 76 l0 38 -145 0 -145 0 0 -39z m226 -1917 c19 -9 64 -43 100 -75 35
-33 68 -59 72 -59 4 0 44 -32 87 -71 44 -39 100 -88 124 -108 96 -79 285 -241
389 -333 46 -40 104 -90 130 -111 26 -20 63 -52 82 -70 19 -18 51 -44 70 -57
19 -13 53 -40 75 -60 84 -78 224 -199 295 -255 59 -46 157 -130 246 -211 44
-40 98 -86 120 -102 21 -16 51 -40 66 -54 14 -14 41 -35 60 -48 18 -12 47 -37
63 -54 17 -17 42 -40 56 -51 14 -11 50 -41 80 -67 30 -26 77 -66 105 -90 81
-68 230 -197 317 -273 44 -38 102 -87 131 -107 28 -21 56 -44 61 -51 6 -6 26
-25 45 -41 39 -31 103 -86 190 -161 32 -27 95 -81 141 -120 46 -38 106 -90
134 -115 28 -25 75 -65 104 -90 29 -25 76 -66 105 -91 28 -25 67 -56 86 -69
19 -13 47 -35 61 -49 14 -14 65 -60 114 -101 49 -41 109 -94 134 -117 25 -24
49 -43 54 -43 5 0 34 -24 65 -53 31 -29 97 -86 146 -127 48 -41 105 -89 125
-107 20 -18 39 -32 44 -33 4 0 29 -21 55 -47 27 -27 70 -66 97 -88 85 -69 223
-185 408 -345 29 -25 77 -65 107 -90 30 -25 83 -71 117 -102 34 -32 66 -58 70
-58 5 0 33 -23 63 -51 30 -29 71 -67 92 -86 20 -18 52 -57 72 -86 l36 -53 0
-5802 c0 -5155 -1 -5806 -15 -5832 -8 -16 -32 -42 -52 -57 l-36 -28 -5266 -2
c-3611 -2 -5280 1 -5311 8 -55 12 -85 39 -105 93 -14 37 -15 629 -13 5896 l3
5855 27 45 c27 45 154 167 221 213 20 13 53 41 74 60 21 20 83 76 138 123 55
48 102 90 105 93 3 4 29 24 57 45 29 21 56 43 60 50 5 7 28 28 53 47 44 34
158 129 214 178 16 14 52 47 80 72 28 25 74 62 101 82 28 20 60 47 72 60 13
14 55 51 95 83 40 32 93 77 118 100 25 23 64 57 87 76 23 18 70 57 105 87 35
29 83 71 108 91 25 21 64 57 88 79 24 23 46 41 50 41 5 0 30 22 58 48 27 26
59 55 71 63 23 16 97 79 238 204 49 45 106 92 125 105 19 13 58 44 85 69 28
25 77 69 109 96 33 28 82 71 110 96 28 25 58 50 67 55 9 5 43 32 75 61 33 28
93 80 134 115 41 34 86 74 100 89 14 14 49 43 77 63 29 21 56 43 60 50 5 6 30
30 58 51 47 37 133 111 284 243 35 31 78 65 95 77 17 12 45 34 61 51 17 16 44
40 60 53 65 53 151 128 189 164 22 21 52 45 67 52 15 8 37 27 51 42 13 15 46
45 73 66 27 21 85 70 128 110 44 40 87 76 96 81 9 5 41 32 72 60 30 28 93 83
139 121 46 39 96 82 111 97 16 14 48 40 73 57 25 17 51 39 58 49 7 10 33 32
57 49 24 18 66 54 95 80 28 27 76 69 106 93 30 24 78 65 105 91 77 73 131 101
183 95 24 -3 59 -13 78 -22z"/>
<path d="M10615 15079 c-174 -7 -178 -7 -310 -50 -107 -35 -196 -54 -325 -69
-104 -12 -188 -39 -235 -75 -28 -21 -149 -74 -205 -91 -14 -3 -41 -19 -60 -34
-47 -35 -136 -84 -183 -99 -21 -7 -64 -35 -95 -63 -31 -27 -83 -70 -116 -94
-32 -24 -67 -55 -78 -69 -11 -14 -41 -39 -66 -57 -99 -67 -251 -225 -384 -399
-201 -263 -226 -301 -341 -533 -54 -111 -111 -221 -126 -246 -30 -53 -126
-282 -147 -355 -45 -151 -59 -194 -80 -236 -30 -60 -164 -574 -179 -684 -7
-50 -28 -165 -45 -240 -35 -158 -79 -536 -112 -965 -7 -94 -11 -638 -12 -1560
-1 -1541 3 -1446 -56 -1470 -17 -7 -256 -11 -710 -13 -746 -2 -714 0 -750 -60
-20 -31 -20 -70 -19 -2127 0 -1945 1 -2098 17 -2139 9 -24 30 -53 45 -65 l28
-21 2248 0 c2130 0 2248 1 2274 18 15 9 36 35 47 58 l21 40 -1 2109 c0 1160
-3 2116 -6 2124 -3 9 -22 26 -42 38 l-37 23 -804 2 c-614 1 -811 5 -833 14
-60 25 -57 -38 -58 1350 -1 844 2 1306 9 1369 10 92 22 176 41 310 13 87 46
436 60 638 12 170 23 223 70 332 15 36 35 108 45 160 24 137 53 239 80 285 12
22 28 60 34 85 20 74 61 171 91 214 16 23 34 62 41 89 28 113 316 487 434 563
28 18 63 48 77 66 18 24 49 44 102 66 42 18 82 32 90 32 7 0 36 15 63 34 128
88 207 104 554 113 376 9 623 -17 697 -76 50 -39 129 -78 174 -86 27 -5 63
-29 128 -86 50 -43 104 -86 119 -95 15 -9 38 -32 51 -52 13 -21 45 -59 70 -87
26 -27 59 -72 75 -100 15 -27 38 -61 51 -75 36 -40 102 -164 115 -216 7 -27
22 -69 34 -94 32 -64 72 -169 80 -210 7 -32 39 -119 85 -231 18 -43 25 -81 64
-339 8 -52 24 -138 36 -190 51 -233 54 -256 80 -753 10 -175 9 -205 -6 -257
-31 -110 26 -102 -640 -99 -319 2 -604 3 -634 4 -128 2 -182 -26 -196 -100
-11 -62 4 -97 116 -269 61 -93 110 -174 110 -180 0 -6 13 -27 29 -47 16 -19
46 -64 66 -100 20 -35 50 -85 68 -111 18 -25 67 -102 110 -170 43 -67 103
-161 133 -208 30 -47 62 -101 70 -119 8 -19 32 -58 53 -85 21 -28 47 -67 56
-86 10 -19 32 -54 49 -77 17 -23 51 -74 76 -114 25 -41 60 -96 79 -124 18 -27
44 -72 58 -98 13 -27 43 -77 66 -112 23 -35 56 -84 72 -110 36 -57 67 -105
161 -250 39 -60 82 -130 94 -155 13 -25 34 -58 47 -74 13 -16 35 -51 49 -78
14 -27 39 -69 57 -93 62 -85 258 -397 308 -490 17 -33 46 -78 64 -100 18 -22
40 -56 50 -75 20 -39 71 -108 95 -127 31 -25 67 -14 136 41 58 45 77 69 124
152 30 54 70 118 88 142 18 24 43 67 56 95 13 29 34 63 48 77 14 14 40 54 57
90 17 35 44 78 60 95 16 16 39 50 51 75 13 25 49 83 80 130 32 47 68 105 80
130 12 25 38 64 56 87 19 23 42 61 53 85 10 24 31 57 45 73 15 17 39 52 52 78
14 27 54 90 88 140 35 51 74 112 86 137 13 25 38 63 56 86 19 22 41 61 49 85
9 24 31 60 50 79 19 19 44 58 56 85 12 28 34 64 50 82 15 18 53 76 85 130 32
54 71 114 86 134 15 20 37 58 48 84 11 27 36 65 54 86 19 20 43 58 55 83 11
26 36 66 54 89 19 23 42 58 52 77 10 19 48 80 84 135 37 55 73 115 81 134 7
19 31 54 51 78 21 24 47 64 58 88 11 25 36 65 55 89 47 56 66 105 66 163 0 56
-15 88 -51 116 -26 19 -49 19 -701 21 -769 1 -711 -6 -747 91 -17 45 -21 79
-21 178 0 113 -5 173 -31 377 -26 209 -39 340 -49 495 -15 245 -35 356 -90
525 -18 55 -29 123 -50 302 -11 94 -36 188 -79 293 -11 28 -32 93 -47 145 -15
52 -40 118 -56 147 -30 54 -49 108 -73 213 -9 36 -27 81 -40 100 -13 19 -45
82 -70 139 -25 57 -59 120 -76 141 -17 20 -36 58 -44 83 -15 50 -149 266 -206
331 -20 23 -51 64 -69 91 -19 28 -55 74 -82 103 -26 30 -48 57 -48 60 0 4 -57
59 -127 122 -70 63 -159 145 -199 183 -40 37 -77 67 -83 67 -5 0 -34 23 -64
50 -35 31 -89 66 -143 91 -49 23 -101 52 -117 65 -31 26 -99 59 -164 79 -23 7
-80 36 -127 64 -85 51 -85 51 -253 75 -103 15 -211 38 -278 59 -60 19 -121 38
-135 42 -43 12 -337 20 -505 14z m-782 -8321 c34 -16 73 -64 86 -108 3 -8 7
-530 10 -1159 4 -823 3 -1157 -5 -1188 -13 -51 -59 -103 -106 -121 -26 -9
-362 -11 -1523 -10 -1661 3 -1518 -4 -1556 75 -20 42 -20 53 -19 1185 0 629 3
1170 6 1203 7 90 32 118 117 135 23 4 697 7 1497 6 1346 -1 1458 -2 1493 -18z"/>
</g>
</svg>
