<?xml version="1.0" standalone="no"?>
<!DOCTYPE svg PUBLIC "-//W3C//DTD SVG 20010904//EN"
 "http://www.w3.org/TR/2001/REC-SVG-20010904/DTD/svg10.dtd">
<svg version="1.0" xmlns="http://www.w3.org/2000/svg"
 width="2022.000000pt" height="2022.000000pt" viewBox="0 0 2022.000000 2022.000000"
 preserveAspectRatio="xMidYMid meet">

<g transform="translate(0.000000,2022.000000) scale(0.100000,-0.100000)"
fill="#000000" stroke="none">
<path d="M9145 19230 c-66 -4 -145 -15 -175 -24 -30 -9 -93 -21 -140 -26 -55
-6 -104 -18 -137 -35 -29 -14 -70 -25 -92 -25 -23 0 -60 -11 -92 -28 -30 -16
-71 -32 -91 -35 -20 -3 -54 -17 -75 -31 -21 -14 -49 -26 -63 -26 -14 0 -43
-14 -64 -30 -22 -17 -50 -30 -62 -30 -13 0 -39 -13 -57 -30 -19 -16 -42 -30
-52 -30 -10 0 -32 -12 -50 -27 -30 -27 -67 -50 -124 -82 -25 -13 -60 -40 -126
-97 -16 -14 -74 -61 -127 -105 -110 -90 -234 -212 -293 -289 -22 -28 -67 -84
-100 -123 -66 -79 -115 -148 -115 -162 0 -5 -11 -20 -24 -34 -26 -28 -62 -87
-96 -161 -12 -25 -27 -52 -34 -60 -7 -8 -18 -30 -24 -48 -6 -18 -20 -45 -31
-60 -10 -15 -24 -47 -31 -71 -6 -24 -21 -56 -32 -72 -12 -15 -24 -51 -29 -78
-4 -28 -17 -64 -29 -80 -12 -18 -24 -57 -29 -98 -5 -37 -19 -90 -31 -118 -15
-34 -25 -85 -31 -160 -5 -60 -17 -139 -26 -175 -16 -61 -18 -339 -23 -4325 -4
-3243 -8 -4265 -17 -4280 -6 -12 -45 -49 -85 -82 -98 -83 -257 -248 -354 -369
-43 -55 -106 -131 -139 -170 -33 -39 -71 -91 -85 -114 -14 -24 -42 -63 -62
-87 -21 -24 -38 -50 -38 -57 0 -7 -9 -21 -20 -31 -11 -10 -20 -24 -20 -31 0
-6 -16 -31 -35 -54 -19 -23 -35 -48 -35 -56 0 -8 -13 -33 -30 -56 -16 -22 -30
-46 -30 -53 0 -6 -11 -26 -24 -44 -14 -19 -28 -46 -31 -62 -4 -15 -13 -33 -20
-39 -8 -7 -24 -37 -35 -67 -11 -31 -29 -66 -39 -79 -10 -13 -22 -41 -26 -61
-3 -21 -16 -48 -27 -60 -11 -12 -24 -43 -29 -70 -5 -26 -18 -60 -29 -75 -11
-15 -22 -46 -26 -70 -3 -24 -17 -63 -30 -87 -13 -24 -28 -69 -33 -100 -5 -31
-21 -81 -35 -111 -16 -35 -26 -73 -26 -102 0 -29 -10 -70 -25 -104 -16 -36
-27 -83 -31 -132 -3 -43 -16 -122 -29 -177 -56 -239 -56 -1083 0 -1300 12 -49
26 -125 29 -168 3 -45 15 -99 26 -125 12 -26 25 -80 31 -122 6 -41 19 -93 31
-115 11 -22 24 -66 28 -97 5 -32 18 -71 30 -88 11 -16 25 -54 30 -85 5 -31 18
-68 28 -83 11 -15 25 -47 32 -72 7 -25 23 -63 36 -86 13 -22 24 -50 24 -60 0
-11 11 -35 24 -53 14 -19 28 -48 32 -65 3 -17 16 -44 29 -61 12 -16 25 -43 29
-60 4 -16 18 -41 31 -55 12 -14 26 -36 30 -50 4 -14 21 -45 38 -70 17 -25 38
-56 47 -70 10 -14 20 -35 24 -47 4 -13 22 -40 39 -62 40 -50 87 -125 87 -139
0 -6 8 -17 19 -24 22 -16 76 -86 142 -184 89 -134 602 -631 761 -738 31 -21
67 -49 79 -62 12 -13 26 -24 31 -24 11 0 106 -63 133 -87 19 -18 65 -44 140
-81 22 -11 49 -29 59 -41 11 -11 27 -21 36 -21 10 0 34 -13 54 -29 20 -16 51
-32 69 -35 19 -3 44 -17 57 -31 13 -14 35 -25 49 -25 14 0 46 -14 70 -30 24
-17 53 -30 64 -30 11 0 39 -11 62 -25 23 -13 64 -29 89 -35 26 -6 60 -20 76
-32 16 -12 54 -25 84 -29 30 -4 67 -17 84 -29 17 -13 53 -25 88 -29 33 -5 81
-18 108 -30 27 -12 77 -24 110 -28 34 -3 90 -16 126 -28 36 -13 105 -26 155
-30 50 -4 141 -18 203 -31 110 -24 127 -24 541 -25 420 0 429 0 550 25 69 15
163 29 210 32 47 4 108 16 136 27 28 10 84 23 125 27 45 5 97 19 130 34 31 14
73 26 96 26 25 0 60 10 90 27 27 14 72 30 101 34 29 4 67 17 84 30 17 12 51
26 75 30 24 5 61 20 81 34 21 14 49 25 63 25 14 0 45 14 70 30 25 16 55 30 67
30 12 0 34 11 50 24 16 13 47 29 69 35 23 6 49 20 58 30 10 11 29 22 44 26 14
3 41 20 59 36 19 16 42 29 52 29 10 0 25 8 35 19 9 10 34 26 56 36 22 10 40
22 40 27 0 5 19 18 43 28 24 11 52 28 62 40 10 11 22 20 28 20 5 0 27 15 47
33 21 17 54 43 75 57 104 72 219 174 435 390 204 203 318 330 390 435 25 37
65 89 110 147 14 17 32 43 40 58 32 57 56 93 83 127 15 20 27 42 27 49 0 7 13
28 29 47 16 18 33 46 37 63 3 16 15 38 25 49 10 11 25 38 35 60 9 22 22 47 29
55 7 8 18 33 25 55 7 22 21 49 30 60 10 11 23 39 30 63 6 23 22 59 35 79 14
20 25 48 25 63 0 15 11 43 24 62 13 20 27 55 31 79 4 24 18 62 30 84 13 22 26
62 30 90 4 27 18 70 31 96 13 26 27 79 32 121 5 41 18 92 29 114 13 24 22 70
26 121 4 45 18 129 32 185 58 236 57 1074 -1 1319 -14 58 -29 143 -33 190 -4
47 -16 99 -26 118 -9 19 -22 68 -27 109 -5 41 -19 95 -32 121 -13 25 -27 71
-31 101 -4 30 -18 73 -30 95 -13 22 -26 60 -30 85 -4 25 -18 61 -31 80 -13 19
-24 48 -24 65 0 18 -11 46 -25 65 -14 19 -30 53 -36 75 -6 22 -20 52 -31 68
-11 15 -24 44 -30 65 -5 20 -16 44 -23 52 -8 8 -23 35 -35 60 -11 25 -36 72
-55 105 -18 33 -41 76 -51 95 -9 19 -29 50 -45 68 -16 18 -29 38 -29 45 0 7
-21 41 -47 76 -27 35 -57 78 -68 95 -48 77 -67 103 -109 151 -24 27 -61 73
-82 100 -99 133 -233 274 -447 472 l-67 61 -3 4269 -2 4268 -23 85 c-13 47
-26 121 -29 165 -4 50 -15 99 -29 132 -13 28 -26 76 -30 105 -3 29 -16 74 -29
99 -13 25 -27 63 -30 85 -4 21 -17 57 -30 79 -12 22 -25 56 -29 76 -4 21 -13
42 -21 49 -8 6 -22 33 -31 58 -10 26 -23 54 -30 62 -6 8 -19 33 -28 55 -10 22
-25 49 -35 60 -10 11 -24 36 -30 56 -7 20 -21 45 -32 55 -12 11 -31 36 -43 58
-37 68 -43 77 -75 114 -17 21 -63 78 -102 127 -101 128 -202 230 -350 353
-164 136 -186 154 -219 172 -66 38 -95 57 -125 83 -18 15 -40 27 -50 27 -10 0
-33 14 -52 30 -18 17 -44 30 -57 30 -13 0 -40 14 -61 30 -21 17 -49 30 -63 30
-14 0 -40 11 -58 25 -18 14 -55 30 -82 35 -28 5 -67 21 -87 35 -27 18 -51 25
-84 25 -30 0 -62 9 -92 24 -32 18 -75 28 -140 35 -52 6 -122 19 -157 30 -55
18 -97 21 -340 25 -152 2 -331 1 -397 -4z m410 -680 c50 -6 140 -15 200 -19
75 -7 126 -16 160 -31 28 -12 78 -26 112 -30 37 -5 74 -17 92 -30 17 -11 53
-25 80 -29 30 -5 62 -18 81 -34 17 -15 43 -27 57 -27 14 0 41 -13 60 -30 18
-16 42 -30 52 -30 10 0 35 -13 56 -30 21 -16 43 -30 50 -30 6 0 22 -11 35 -25
13 -14 29 -25 36 -25 14 0 67 -42 164 -128 150 -134 370 -378 370 -411 0 -6
13 -25 28 -43 30 -35 46 -60 86 -145 14 -28 29 -54 35 -57 5 -4 17 -30 27 -59
9 -28 26 -63 36 -77 10 -14 22 -48 27 -76 4 -28 18 -67 30 -87 13 -22 25 -60
28 -94 3 -32 17 -89 32 -128 l26 -70 5 -4435 5 -4435 35 -63 c26 -48 58 -83
130 -145 248 -212 528 -505 633 -662 26 -38 63 -90 82 -115 20 -25 42 -61 51
-80 8 -19 24 -44 34 -55 21 -22 60 -88 86 -145 9 -19 25 -45 35 -59 10 -13 19
-31 19 -40 0 -9 14 -36 30 -60 17 -24 30 -52 30 -61 0 -10 11 -34 25 -54 14
-21 30 -58 35 -83 6 -25 20 -59 31 -75 12 -16 23 -48 26 -71 3 -23 17 -61 30
-83 13 -23 26 -66 30 -95 3 -30 17 -75 30 -101 13 -27 26 -75 29 -110 3 -35
17 -97 30 -138 13 -41 26 -113 29 -160 4 -47 15 -137 25 -200 37 -224 35 -500
-4 -765 -9 -55 -20 -144 -26 -198 -5 -54 -17 -112 -26 -130 -9 -17 -21 -67
-25 -110 -5 -43 -19 -96 -30 -119 -11 -22 -25 -66 -30 -99 -5 -32 -19 -75 -31
-95 -12 -20 -25 -58 -29 -83 -4 -26 -19 -65 -33 -86 -14 -21 -26 -50 -26 -64
0 -15 -11 -42 -23 -61 -13 -19 -27 -48 -31 -65 -4 -16 -18 -43 -30 -60 -13
-16 -26 -42 -29 -57 -4 -14 -18 -39 -31 -55 -13 -15 -26 -42 -30 -59 -4 -18
-16 -40 -28 -50 -11 -11 -29 -37 -40 -59 -26 -56 -60 -111 -86 -138 -12 -13
-22 -28 -22 -34 0 -10 -22 -41 -95 -133 -19 -25 -65 -83 -101 -130 -124 -160
-401 -428 -564 -545 -23 -16 -52 -40 -65 -53 -28 -27 -84 -66 -133 -91 -20
-10 -46 -28 -56 -40 -11 -12 -25 -21 -32 -21 -7 0 -25 -11 -41 -24 -16 -14
-41 -28 -55 -31 -14 -4 -36 -18 -49 -31 -12 -13 -33 -24 -45 -24 -13 0 -38
-13 -56 -28 -18 -16 -46 -32 -63 -36 -16 -4 -44 -18 -62 -32 -17 -13 -43 -24
-56 -24 -13 0 -41 -13 -62 -30 -23 -19 -50 -30 -69 -30 -17 0 -53 -14 -81 -30
-28 -16 -65 -30 -83 -30 -18 0 -58 -14 -89 -30 -35 -19 -71 -30 -95 -30 -22 0
-64 -11 -95 -26 -33 -14 -83 -27 -122 -31 -36 -3 -99 -17 -140 -30 -56 -19
-109 -26 -225 -33 -83 -5 -213 -14 -289 -21 -108 -10 -169 -10 -285 0 -81 7
-215 16 -297 21 -117 7 -167 14 -225 33 -41 14 -104 28 -140 31 -40 3 -87 15
-120 30 -31 14 -73 26 -96 26 -26 0 -61 11 -97 30 -31 16 -71 30 -89 30 -18 1
-58 14 -88 30 -30 17 -65 30 -78 30 -12 0 -41 14 -64 30 -22 17 -52 30 -65 30
-13 0 -42 13 -65 30 -22 16 -50 30 -61 30 -11 0 -35 13 -54 30 -18 16 -44 30
-57 30 -12 0 -33 11 -45 24 -13 13 -35 27 -49 31 -14 3 -39 17 -55 31 -16 13
-33 24 -39 24 -6 0 -28 16 -49 35 -22 19 -43 35 -49 35 -12 0 -78 42 -115 74
-31 27 -81 68 -150 121 -133 103 -385 352 -470 463 -22 29 -67 87 -100 127
-91 113 -105 132 -105 143 0 6 -12 25 -27 43 -35 41 -66 90 -96 155 -14 28
-31 54 -40 57 -8 3 -18 21 -22 39 -4 18 -18 46 -31 61 -13 16 -27 41 -30 55
-4 15 -17 41 -29 57 -13 17 -28 48 -33 69 -6 21 -19 47 -28 57 -9 10 -20 39
-25 64 -5 25 -20 62 -34 82 -14 21 -25 52 -25 69 0 17 -13 55 -29 85 -15 30
-31 77 -34 106 -3 28 -16 70 -27 93 -12 24 -25 76 -30 119 -5 42 -18 101 -30
131 -14 35 -23 86 -26 145 -3 49 -12 133 -21 185 -32 199 -33 584 -2 725 6 28
14 106 19 175 6 92 15 144 33 195 14 39 27 97 30 130 3 34 16 84 31 115 14 30
26 71 26 91 0 19 11 58 25 85 14 27 28 67 31 89 4 22 15 56 26 75 11 19 27 58
35 85 8 28 21 57 29 65 7 9 20 35 29 59 8 23 23 54 33 69 11 15 24 42 30 60 6
18 20 45 32 59 11 14 20 31 20 38 0 7 13 29 30 50 16 21 30 45 30 55 0 9 12
27 26 41 15 13 35 42 45 64 29 60 61 108 86 128 13 10 23 23 23 29 0 50 320
399 545 595 124 108 225 215 225 237 0 7 10 26 23 42 l22 29 5 4425 5 4425 28
80 c15 44 27 98 27 120 0 25 12 64 30 100 16 33 30 72 30 88 0 15 14 53 30 84
17 31 30 64 30 73 0 10 8 28 19 41 10 13 28 44 40 69 40 82 66 126 89 156 13
16 41 56 62 89 41 65 163 200 275 305 38 36 80 76 94 90 36 35 124 100 134
100 5 0 25 14 44 30 18 17 39 30 44 30 6 0 24 11 41 25 16 14 38 25 47 25 10
0 35 14 56 30 21 17 47 30 59 30 12 0 40 13 62 29 21 15 58 31 80 35 23 3 61
17 85 31 26 15 60 25 84 25 22 0 67 12 100 26 44 18 93 28 180 35 66 6 154 14
195 19 112 11 146 11 245 0z"/>
<path d="M9181 14298 c-58 -7 -94 -16 -120 -33 -20 -12 -53 -28 -73 -35 -21
-6 -38 -15 -38 -19 0 -4 -15 -15 -32 -26 -18 -10 -61 -48 -95 -83 -59 -60 -88
-106 -159 -257 l-29 -60 -2 -3204 c-2 -2369 -6 -3207 -14 -3217 -6 -8 -22 -14
-35 -14 -14 0 -41 -11 -62 -24 -21 -13 -56 -27 -79 -30 -23 -4 -49 -16 -59
-27 -9 -10 -35 -24 -57 -30 -23 -6 -55 -22 -72 -35 -18 -13 -39 -24 -47 -24
-8 0 -32 -13 -53 -30 -21 -16 -44 -30 -53 -30 -8 0 -29 -12 -47 -27 -31 -27
-63 -48 -129 -85 -16 -10 -40 -28 -53 -40 -12 -13 -47 -43 -77 -68 -60 -49
-258 -248 -346 -347 -69 -77 -102 -120 -117 -152 -7 -14 -29 -46 -48 -71 -19
-25 -45 -65 -57 -90 -11 -25 -31 -58 -44 -73 -13 -16 -24 -37 -24 -46 0 -10
-13 -35 -30 -56 -16 -21 -30 -49 -30 -62 0 -14 -9 -38 -20 -54 -12 -15 -27
-53 -35 -84 -8 -31 -23 -68 -34 -83 -10 -15 -21 -50 -24 -78 -3 -28 -17 -72
-31 -99 -18 -33 -26 -63 -26 -99 0 -28 -14 -105 -31 -170 l-30 -119 3 -316 c4
-308 4 -319 31 -415 15 -54 27 -119 27 -145 0 -28 10 -67 26 -100 14 -30 28
-75 31 -100 3 -26 16 -64 28 -86 12 -22 26 -56 30 -75 4 -19 21 -58 36 -86 16
-28 29 -58 29 -67 0 -10 14 -36 30 -59 17 -22 30 -49 30 -58 0 -10 8 -28 18
-41 10 -13 31 -46 48 -73 60 -101 70 -116 119 -180 28 -37 66 -88 85 -114 97
-130 360 -381 447 -425 17 -9 33 -21 35 -25 3 -10 70 -56 120 -84 17 -9 40
-25 52 -36 11 -11 32 -23 46 -27 14 -4 38 -18 53 -31 16 -13 37 -24 46 -24 10
0 36 -12 57 -26 21 -14 57 -32 81 -39 23 -7 54 -22 69 -34 15 -11 39 -21 53
-21 15 0 53 -13 86 -30 33 -16 76 -30 95 -30 19 0 60 -12 90 -26 38 -18 84
-28 150 -35 52 -5 117 -16 145 -24 148 -43 537 -46 705 -6 47 12 126 25 175
30 61 6 108 18 145 35 30 14 71 26 90 26 19 0 62 14 95 30 33 16 72 30 86 30
15 0 38 10 53 21 15 12 47 27 72 35 25 7 57 22 72 32 15 11 43 25 63 31 20 6
44 20 54 31 9 10 30 22 45 25 15 3 38 17 50 31 13 13 31 24 41 24 15 0 66 37
129 94 8 7 26 19 40 26 14 7 43 27 65 44 57 44 355 345 388 392 51 71 86 119
109 147 26 33 60 88 82 132 8 17 26 45 40 64 14 19 26 42 26 52 0 9 14 33 30
54 17 21 30 48 30 60 0 12 11 39 25 59 14 21 30 57 35 82 6 25 20 58 32 74 12
16 25 54 29 85 4 30 17 75 28 99 12 24 26 79 31 122 5 44 19 108 32 144 22 63
23 75 23 430 0 358 0 366 -24 435 -13 39 -27 106 -32 150 -5 54 -16 96 -33
129 -14 27 -26 64 -26 83 0 18 -13 59 -30 90 -16 31 -30 68 -30 83 0 15 -9 39
-21 54 -11 14 -25 43 -31 63 -5 20 -20 51 -33 68 -12 16 -25 42 -29 57 -3 14
-17 39 -30 55 -14 16 -28 41 -31 56 -4 14 -14 32 -22 39 -13 10 -40 49 -98
139 -89 139 -499 550 -587 589 -28 13 -84 52 -121 85 -15 14 -36 25 -46 25
-10 0 -35 13 -56 30 -21 17 -45 30 -53 30 -8 0 -29 11 -47 24 -17 13 -49 29
-72 35 -22 6 -48 20 -57 30 -10 11 -37 23 -59 26 -23 4 -59 18 -79 31 -21 13
-48 24 -61 24 -13 0 -31 8 -40 18 -16 17 -17 255 -17 3223 l0 3204 -30 60
c-16 33 -30 66 -30 74 0 25 -66 114 -133 181 -83 83 -116 107 -167 125 -23 8
-53 23 -68 34 -53 37 -393 53 -611 29z"/>
<path d="M13130 16136 c-48 -18 -71 -32 -88 -57 -13 -19 -30 -41 -38 -51 -15
-15 -19 -68 -15 -189 1 -51 54 -114 125 -150 l57 -29 1089 0 1089 -1 55 31
c87 49 112 84 120 166 3 38 2 95 -2 126 -10 67 -46 110 -128 149 l-49 24
-1075 2 -1075 2 -65 -23z"/>
<path d="M13131 15010 c-35 -11 -64 -20 -65 -22 -1 -2 -16 -22 -34 -46 -44
-57 -50 -81 -44 -182 4 -78 7 -88 37 -123 18 -21 57 -54 87 -72 l53 -34 456
-1 456 0 37 25 c20 14 49 31 64 39 35 18 82 130 82 193 0 54 -38 139 -79 177
-61 58 -67 58 -546 62 -409 3 -444 2 -504 -16z"/>
<path d="M13131 13885 c-55 -13 -62 -19 -118 -99 -26 -36 -27 -44 -25 -134 4
-109 15 -131 105 -202 l50 -40 1117 0 1118 0 60 51 c33 28 63 58 67 67 17 44
25 124 19 185 -6 61 -11 74 -47 115 -35 42 -47 48 -101 59 -92 18 -2170 16
-2245 -2z"/>
<path d="M13108 12756 c-31 -16 -99 -89 -113 -121 -6 -12 -10 -64 -9 -115 l1
-93 71 -69 70 -69 495 3 495 3 26 24 c14 13 36 29 48 35 35 17 69 125 64 200
-2 32 -9 63 -15 69 -6 6 -11 19 -11 29 0 11 -22 41 -50 68 l-49 50 -498 0
c-405 0 -503 -3 -525 -14z"/>
<path d="M13109 11635 c-15 -8 -49 -41 -76 -73 l-49 -59 2 -96 1 -96 52 -60
c37 -42 64 -64 89 -71 45 -12 2186 -13 2250 -1 31 6 56 21 87 51 39 38 45 51
55 111 9 52 9 86 0 138 -10 60 -16 73 -53 109 -23 22 -55 46 -70 51 -19 8
-383 11 -1145 11 -951 -1 -1121 -3 -1143 -15z"/>
<path d="M13056 10461 l-69 -69 -1 -89 c-2 -104 7 -132 65 -194 41 -44 48 -47
109 -54 36 -3 271 -5 522 -3 l457 3 46 50 c25 28 45 57 45 66 0 8 5 20 10 25
24 24 23 111 -1 185 -24 73 -34 84 -123 136 -16 10 -139 13 -506 13 l-486 0
-68 -69z"/>
<path d="M13081 9360 c-86 -72 -90 -80 -92 -192 -2 -104 -2 -104 69 -196 39
-50 61 -51 1197 -51 1181 0 1159 -1 1216 64 50 56 51 59 52 169 1 125 -10 149
-95 211 l-62 45 -1112 0 -1113 0 -60 -50z"/>
</g>
</svg>
